<mxfile host="app.diagrams.net" modified="2020-11-20T14:54:03.239Z" agent="5.0 (Windows NT 10.0; Win64; x64) AppleWebKit/537.36 (KHTML, like Gecko) Chrome/86.0.4240.198 Safari/537.36" etag="dIX4QIXpMIgQTPy_TeGe" version="13.10.0" type="github">
  <diagram id="C5RBs43oDa-KdzZeNtuy" name="Page-1">
    <mxGraphModel dx="6214" dy="5470" grid="1" gridSize="10" guides="1" tooltips="1" connect="1" arrows="1" fold="0" page="1" pageScale="1" pageWidth="2339" pageHeight="3300" math="0" shadow="0">
      <root>
        <mxCell id="WIyWlLk6GJQsqaUBKTNV-0" />
        <mxCell id="WIyWlLk6GJQsqaUBKTNV-1" parent="WIyWlLk6GJQsqaUBKTNV-0" />
        <mxCell id="6e8Cwwr0hj-UMSGpgfXc-20" style="edgeStyle=orthogonalEdgeStyle;rounded=1;orthogonalLoop=1;jettySize=auto;html=1;fontSize=20;entryX=0;entryY=0.5;entryDx=0;entryDy=0;" parent="WIyWlLk6GJQsqaUBKTNV-1" source="hmOcISKYs5yDdYKpSmGY-7" target="K3oOLh2pZVhGYxKfuLFw-37" edge="1">
          <mxGeometry relative="1" as="geometry">
            <mxPoint x="2380" y="3590" as="targetPoint" />
            <Array as="points">
              <mxPoint x="3790" y="4030" />
              <mxPoint x="4939" y="4030" />
            </Array>
          </mxGeometry>
        </mxCell>
        <mxCell id="mfQDYrMZqN6Y804PRQHQ-34" style="edgeStyle=orthogonalEdgeStyle;rounded=1;orthogonalLoop=1;jettySize=auto;html=1;entryX=0.5;entryY=0;entryDx=0;entryDy=0;fontSize=24;exitX=0.5;exitY=0;exitDx=0;exitDy=0;" parent="WIyWlLk6GJQsqaUBKTNV-1" source="jobuWl_KfaXL-yA0P-ZW-13" target="mfQDYrMZqN6Y804PRQHQ-33" edge="1">
          <mxGeometry relative="1" as="geometry">
            <mxPoint x="3560" y="1950" as="sourcePoint" />
          </mxGeometry>
        </mxCell>
        <mxCell id="i0vj7bkVoeIxhTv1__Wb-99" style="edgeStyle=orthogonalEdgeStyle;rounded=1;orthogonalLoop=1;jettySize=auto;html=1;entryX=0.5;entryY=0;entryDx=0;entryDy=0;fontSize=12;" parent="WIyWlLk6GJQsqaUBKTNV-1" source="iHcdqhV0YViVewFqACI8-0" target="aXcIpb9wPaynXJKiq8YG-51" edge="1">
          <mxGeometry relative="1" as="geometry">
            <Array as="points">
              <mxPoint x="1610" y="681" />
            </Array>
          </mxGeometry>
        </mxCell>
        <mxCell id="iHcdqhV0YViVewFqACI8-0" value="&lt;div&gt;Data from Databases eg Gbif, Biocase,&lt;/div&gt;&lt;div&gt;R libraries which may be used:&lt;/div&gt;&lt;div&gt;&lt;ul&gt;&lt;li&gt;Spocc&lt;/li&gt;&lt;li&gt;rgbif&lt;/li&gt;&lt;li&gt;ebird&lt;/li&gt;&lt;li&gt;auk&lt;br&gt;&lt;/li&gt;&lt;/ul&gt;&lt;/div&gt;" style="shape=cylinder3;whiteSpace=wrap;html=1;boundedLbl=1;backgroundOutline=1;size=15;" parent="WIyWlLk6GJQsqaUBKTNV-1" vertex="1">
          <mxGeometry x="1470" y="395" width="270" height="200" as="geometry" />
        </mxCell>
        <mxCell id="iHcdqhV0YViVewFqACI8-129" style="edgeStyle=orthogonalEdgeStyle;rounded=1;jumpStyle=arc;orthogonalLoop=1;jettySize=auto;html=1;endArrow=blockThin;endFill=1;fontSize=12;" parent="WIyWlLk6GJQsqaUBKTNV-1" source="iHcdqhV0YViVewFqACI8-14" target="iHcdqhV0YViVewFqACI8-20" edge="1">
          <mxGeometry relative="1" as="geometry" />
        </mxCell>
        <mxCell id="iHcdqhV0YViVewFqACI8-157" value="No" style="edgeLabel;html=1;align=center;verticalAlign=middle;resizable=0;points=[];fontSize=12;" parent="iHcdqhV0YViVewFqACI8-129" vertex="1" connectable="0">
          <mxGeometry x="-0.3527" relative="1" as="geometry">
            <mxPoint as="offset" />
          </mxGeometry>
        </mxCell>
        <mxCell id="i0vj7bkVoeIxhTv1__Wb-76" style="edgeStyle=orthogonalEdgeStyle;rounded=1;orthogonalLoop=1;jettySize=auto;html=1;fontSize=12;" parent="WIyWlLk6GJQsqaUBKTNV-1" source="iHcdqhV0YViVewFqACI8-14" target="i0vj7bkVoeIxhTv1__Wb-69" edge="1">
          <mxGeometry relative="1" as="geometry" />
        </mxCell>
        <mxCell id="iHcdqhV0YViVewFqACI8-14" value="Do you have an agreed taxonomy with knowledge of synonyms &lt;b&gt;AND&lt;/b&gt; historical species delimitations (Checklist for the region)? Within Sweden use dyntaxa" style="rhombus;whiteSpace=wrap;html=1;" parent="WIyWlLk6GJQsqaUBKTNV-1" vertex="1">
          <mxGeometry x="1420" y="110" width="380" height="180" as="geometry" />
        </mxCell>
        <mxCell id="i0vj7bkVoeIxhTv1__Wb-97" style="edgeStyle=orthogonalEdgeStyle;rounded=1;orthogonalLoop=1;jettySize=auto;html=1;entryX=0.5;entryY=0;entryDx=0;entryDy=0;fontSize=12;" parent="WIyWlLk6GJQsqaUBKTNV-1" source="iHcdqhV0YViVewFqACI8-20" target="iHcdqhV0YViVewFqACI8-14" edge="1">
          <mxGeometry relative="1" as="geometry">
            <Array as="points">
              <mxPoint x="2151" y="90" />
              <mxPoint x="1610" y="90" />
            </Array>
          </mxGeometry>
        </mxCell>
        <mxCell id="iHcdqhV0YViVewFqACI8-20" value="&lt;div&gt;Do this!!!&lt;/div&gt;Species concepts change over time, betweeen countries and databases. Species with the same name may not be the same concept as denoted by the species authority. " style="ellipse;whiteSpace=wrap;html=1;" parent="WIyWlLk6GJQsqaUBKTNV-1" vertex="1">
          <mxGeometry x="2005.9999999999998" y="102.5" width="290" height="195" as="geometry" />
        </mxCell>
        <mxCell id="aXcIpb9wPaynXJKiq8YG-42" style="edgeStyle=orthogonalEdgeStyle;rounded=1;orthogonalLoop=1;jettySize=auto;html=1;entryX=0.5;entryY=0;entryDx=0;entryDy=0;" parent="WIyWlLk6GJQsqaUBKTNV-1" source="iHcdqhV0YViVewFqACI8-45" target="mfQDYrMZqN6Y804PRQHQ-8" edge="1">
          <mxGeometry relative="1" as="geometry">
            <mxPoint x="1650" y="1740" as="targetPoint" />
            <Array as="points">
              <mxPoint x="1162" y="1690" />
              <mxPoint x="2490" y="1690" />
              <mxPoint x="2490" y="1101" />
            </Array>
          </mxGeometry>
        </mxCell>
        <mxCell id="aXcIpb9wPaynXJKiq8YG-45" value="No" style="edgeLabel;html=1;align=center;verticalAlign=middle;resizable=0;points=[];" parent="aXcIpb9wPaynXJKiq8YG-42" vertex="1" connectable="0">
          <mxGeometry x="-0.2421" y="2" relative="1" as="geometry">
            <mxPoint as="offset" />
          </mxGeometry>
        </mxCell>
        <mxCell id="aXcIpb9wPaynXJKiq8YG-51" value="create data frame ID and merge" style="shape=hexagon;perimeter=hexagonPerimeter2;whiteSpace=wrap;html=1;fixedSize=1;direction=south;" parent="WIyWlLk6GJQsqaUBKTNV-1" vertex="1">
          <mxGeometry x="1412" y="650.0699999999999" width="112.5" height="62.5" as="geometry" />
        </mxCell>
        <mxCell id="kHVZ-IwuB8bhGgUG1t6H-6" style="edgeStyle=orthogonalEdgeStyle;rounded=1;orthogonalLoop=1;jettySize=auto;html=1;entryX=0.5;entryY=0;entryDx=0;entryDy=0;" parent="WIyWlLk6GJQsqaUBKTNV-1" source="i0vj7bkVoeIxhTv1__Wb-21" target="kHVZ-IwuB8bhGgUG1t6H-5" edge="1">
          <mxGeometry relative="1" as="geometry">
            <mxPoint x="470" y="110" as="targetPoint" />
            <Array as="points">
              <mxPoint x="460" y="90" />
            </Array>
          </mxGeometry>
        </mxCell>
        <mxCell id="i0vj7bkVoeIxhTv1__Wb-21" value="&lt;u&gt;Research Question&lt;/u&gt;" style="ellipse;shape=cloud;whiteSpace=wrap;html=1;strokeColor=#000000;fillColor=#ffffff;gradientColor=none;fontSize=40;" parent="WIyWlLk6GJQsqaUBKTNV-1" vertex="1">
          <mxGeometry x="40" width="320" height="180" as="geometry" />
        </mxCell>
        <mxCell id="i0vj7bkVoeIxhTv1__Wb-34" style="edgeStyle=orthogonalEdgeStyle;rounded=1;orthogonalLoop=1;jettySize=auto;html=1;fontSize=40;entryX=0;entryY=0.5;entryDx=0;entryDy=0;" parent="WIyWlLk6GJQsqaUBKTNV-1" source="i0vj7bkVoeIxhTv1__Wb-79" target="K3oOLh2pZVhGYxKfuLFw-26" edge="1">
          <mxGeometry relative="1" as="geometry">
            <mxPoint x="1080" y="90" as="targetPoint" />
          </mxGeometry>
        </mxCell>
        <mxCell id="i0vj7bkVoeIxhTv1__Wb-48" style="edgeStyle=orthogonalEdgeStyle;rounded=0;orthogonalLoop=1;jettySize=auto;html=1;entryX=0.5;entryY=0;entryDx=0;entryDy=0;entryPerimeter=0;fontSize=12;" parent="WIyWlLk6GJQsqaUBKTNV-1" source="i0vj7bkVoeIxhTv1__Wb-45" target="i0vj7bkVoeIxhTv1__Wb-46" edge="1">
          <mxGeometry relative="1" as="geometry" />
        </mxCell>
        <mxCell id="i0vj7bkVoeIxhTv1__Wb-50" value="Yes" style="edgeLabel;html=1;align=center;verticalAlign=middle;resizable=0;points=[];fontSize=12;" parent="i0vj7bkVoeIxhTv1__Wb-48" vertex="1" connectable="0">
          <mxGeometry x="-0.2308" y="-1" relative="1" as="geometry">
            <mxPoint as="offset" />
          </mxGeometry>
        </mxCell>
        <mxCell id="i0vj7bkVoeIxhTv1__Wb-54" style="edgeStyle=orthogonalEdgeStyle;rounded=0;orthogonalLoop=1;jettySize=auto;html=1;entryX=0.5;entryY=0;entryDx=0;entryDy=0;entryPerimeter=0;fontSize=12;" parent="WIyWlLk6GJQsqaUBKTNV-1" source="i0vj7bkVoeIxhTv1__Wb-45" target="i0vj7bkVoeIxhTv1__Wb-53" edge="1">
          <mxGeometry relative="1" as="geometry" />
        </mxCell>
        <mxCell id="i0vj7bkVoeIxhTv1__Wb-58" value="No" style="edgeLabel;html=1;align=center;verticalAlign=middle;resizable=0;points=[];fontSize=12;" parent="i0vj7bkVoeIxhTv1__Wb-54" vertex="1" connectable="0">
          <mxGeometry x="-0.4595" y="-4" relative="1" as="geometry">
            <mxPoint as="offset" />
          </mxGeometry>
        </mxCell>
        <mxCell id="i0vj7bkVoeIxhTv1__Wb-45" value="A question related to the staticness of the environmental data required" style="rhombus;whiteSpace=wrap;html=1;labelBackgroundColor=none;strokeColor=#000000;fillColor=#ffffff;gradientColor=none;fontSize=12;" parent="WIyWlLk6GJQsqaUBKTNV-1" vertex="1">
          <mxGeometry x="30" y="350" width="205" height="170" as="geometry" />
        </mxCell>
        <mxCell id="Ht7DqxaqcuQZNmXZxaJC-1" style="edgeStyle=orthogonalEdgeStyle;rounded=0;orthogonalLoop=1;jettySize=auto;html=1;" parent="WIyWlLk6GJQsqaUBKTNV-1" source="i0vj7bkVoeIxhTv1__Wb-46" target="sg-I6Dr9140E_a6tFQ04-0" edge="1">
          <mxGeometry relative="1" as="geometry" />
        </mxCell>
        <mxCell id="i0vj7bkVoeIxhTv1__Wb-46" value="Satellite databases like for example MODIS" style="shape=cylinder3;whiteSpace=wrap;html=1;boundedLbl=1;backgroundOutline=1;size=15;labelBackgroundColor=none;strokeColor=#000000;fillColor=#ffffff;gradientColor=none;fontSize=12;" parent="WIyWlLk6GJQsqaUBKTNV-1" vertex="1">
          <mxGeometry x="290" y="572.57" width="250" height="140" as="geometry" />
        </mxCell>
        <mxCell id="Ht7DqxaqcuQZNmXZxaJC-0" style="edgeStyle=orthogonalEdgeStyle;rounded=0;orthogonalLoop=1;jettySize=auto;html=1;" parent="WIyWlLk6GJQsqaUBKTNV-1" source="i0vj7bkVoeIxhTv1__Wb-53" target="sg-I6Dr9140E_a6tFQ04-1" edge="1">
          <mxGeometry relative="1" as="geometry" />
        </mxCell>
        <mxCell id="i0vj7bkVoeIxhTv1__Wb-53" value="Download data from data bases eg worldclim" style="shape=cylinder3;whiteSpace=wrap;html=1;boundedLbl=1;backgroundOutline=1;size=15;labelBackgroundColor=none;strokeColor=#000000;fillColor=#ffffff;gradientColor=none;fontSize=12;" parent="WIyWlLk6GJQsqaUBKTNV-1" vertex="1">
          <mxGeometry x="57.5" y="570" width="142.5" height="140" as="geometry" />
        </mxCell>
        <mxCell id="i0vj7bkVoeIxhTv1__Wb-96" style="edgeStyle=orthogonalEdgeStyle;rounded=1;orthogonalLoop=1;jettySize=auto;html=1;fontSize=12;entryX=0.5;entryY=0;entryDx=0;entryDy=0;entryPerimeter=0;" parent="WIyWlLk6GJQsqaUBKTNV-1" source="i0vj7bkVoeIxhTv1__Wb-69" target="iHcdqhV0YViVewFqACI8-0" edge="1">
          <mxGeometry relative="1" as="geometry">
            <mxPoint x="1610.0588235294117" y="395.03529411764725" as="targetPoint" />
          </mxGeometry>
        </mxCell>
        <mxCell id="i0vj7bkVoeIxhTv1__Wb-69" value="Data frame of agreed synonyms" style="shape=parallelogram;perimeter=parallelogramPerimeter;whiteSpace=wrap;html=1;fixedSize=1;labelBackgroundColor=none;strokeColor=#000000;fillColor=#ffffff;gradientColor=#ffffff;fontSize=12;rounded=1;" parent="WIyWlLk6GJQsqaUBKTNV-1" vertex="1">
          <mxGeometry x="1460" y="300" width="300" height="60" as="geometry" />
        </mxCell>
        <mxCell id="i0vj7bkVoeIxhTv1__Wb-79" value="&lt;h1 style=&quot;font-size: 40px&quot;&gt;&lt;font style=&quot;font-size: 40px&quot;&gt;Biodiversity &lt;br&gt;&lt;/font&gt;&lt;/h1&gt;" style="rounded=0;whiteSpace=wrap;html=1;labelBackgroundColor=none;strokeColor=#000000;fillColor=#ffffff;gradientColor=#ffffff;fontSize=12;" parent="WIyWlLk6GJQsqaUBKTNV-1" vertex="1">
          <mxGeometry x="650" y="60" width="250" height="60" as="geometry" />
        </mxCell>
        <mxCell id="i0vj7bkVoeIxhTv1__Wb-80" style="edgeStyle=orthogonalEdgeStyle;rounded=0;orthogonalLoop=1;jettySize=auto;html=1;entryX=0;entryY=0.5;entryDx=0;entryDy=0;fontSize=40;" parent="WIyWlLk6GJQsqaUBKTNV-1" source="i0vj7bkVoeIxhTv1__Wb-21" target="i0vj7bkVoeIxhTv1__Wb-79" edge="1">
          <mxGeometry relative="1" as="geometry">
            <mxPoint x="600" y="90" as="sourcePoint" />
            <mxPoint x="1790" y="110" as="targetPoint" />
          </mxGeometry>
        </mxCell>
        <mxCell id="w-YvjRMWvmcFSU0H_ef8-7" value="" style="endArrow=classic;html=1;edgeStyle=orthogonalEdgeStyle;entryX=0.5;entryY=0;entryDx=0;entryDy=0;exitX=0.5;exitY=1;exitDx=0;exitDy=0;" parent="WIyWlLk6GJQsqaUBKTNV-1" source="w-YvjRMWvmcFSU0H_ef8-9" target="i0vj7bkVoeIxhTv1__Wb-45" edge="1">
          <mxGeometry width="50" height="50" relative="1" as="geometry">
            <mxPoint x="360" y="90" as="sourcePoint" />
            <mxPoint x="640" y="290" as="targetPoint" />
            <Array as="points">
              <mxPoint x="280" y="310" />
              <mxPoint x="133" y="310" />
            </Array>
          </mxGeometry>
        </mxCell>
        <mxCell id="w-YvjRMWvmcFSU0H_ef8-9" value="Data from Databases" style="text;html=1;align=center;verticalAlign=middle;whiteSpace=wrap;rounded=0;fontSize=12;fillColor=#ffffff;strokeColor=#000000;" parent="WIyWlLk6GJQsqaUBKTNV-1" vertex="1">
          <mxGeometry x="200" y="230" width="160" height="50" as="geometry" />
        </mxCell>
        <mxCell id="w-YvjRMWvmcFSU0H_ef8-13" value="Data gathered with biodiversity data" style="text;html=1;align=center;verticalAlign=middle;whiteSpace=wrap;rounded=0;fontSize=12;fillColor=#ffffff;strokeColor=#000000;" parent="WIyWlLk6GJQsqaUBKTNV-1" vertex="1">
          <mxGeometry x="570" y="230" width="180" height="50" as="geometry" />
        </mxCell>
        <mxCell id="mfQDYrMZqN6Y804PRQHQ-9" style="edgeStyle=orthogonalEdgeStyle;rounded=1;orthogonalLoop=1;jettySize=auto;html=1;entryX=0.5;entryY=0;entryDx=0;entryDy=0;" parent="WIyWlLk6GJQsqaUBKTNV-1" source="iHcdqhV0YViVewFqACI8-179" target="mfQDYrMZqN6Y804PRQHQ-8" edge="1">
          <mxGeometry relative="1" as="geometry">
            <Array as="points">
              <mxPoint x="1804" y="1710" />
              <mxPoint x="2440" y="1710" />
              <mxPoint x="2440" y="1101" />
            </Array>
          </mxGeometry>
        </mxCell>
        <mxCell id="xw4S7eZGQW3ErX5LzovB-41" value="" style="endArrow=classic;html=1;fontSize=24;edgeStyle=orthogonalEdgeStyle;entryX=0.5;entryY=0;entryDx=0;entryDy=0;exitX=0.5;exitY=1;exitDx=0;exitDy=0;" parent="WIyWlLk6GJQsqaUBKTNV-1" source="hmOcISKYs5yDdYKpSmGY-7" target="nuO9TFtqxaYfnLADoFkb-13" edge="1">
          <mxGeometry width="50" height="50" relative="1" as="geometry">
            <mxPoint x="1510" y="3020" as="sourcePoint" />
            <mxPoint x="1507" y="3330" as="targetPoint" />
            <Array as="points">
              <mxPoint x="3790" y="2300" />
              <mxPoint x="5120" y="2300" />
              <mxPoint x="5120" y="1380" />
            </Array>
          </mxGeometry>
        </mxCell>
        <mxCell id="xw4S7eZGQW3ErX5LzovB-45" value="&lt;font style=&quot;font-size: 48px&quot;&gt;&lt;b&gt;Trends and patterns&lt;/b&gt;&lt;/font&gt;" style="edgeLabel;html=1;align=center;verticalAlign=middle;resizable=0;points=[];fontSize=24;" parent="xw4S7eZGQW3ErX5LzovB-41" vertex="1" connectable="0">
          <mxGeometry x="0.2848" y="-2" relative="1" as="geometry">
            <mxPoint x="2" as="offset" />
          </mxGeometry>
        </mxCell>
        <mxCell id="xw4S7eZGQW3ErX5LzovB-42" value="" style="endArrow=classic;html=1;fontSize=24;edgeStyle=orthogonalEdgeStyle;exitX=0.5;exitY=1;exitDx=0;exitDy=0;entryX=0;entryY=0.5;entryDx=0;entryDy=0;" parent="WIyWlLk6GJQsqaUBKTNV-1" source="hmOcISKYs5yDdYKpSmGY-7" target="w-YvjRMWvmcFSU0H_ef8-31" edge="1">
          <mxGeometry width="50" height="50" relative="1" as="geometry">
            <mxPoint x="1510" y="3020" as="sourcePoint" />
            <mxPoint x="2540" y="3060" as="targetPoint" />
            <Array as="points">
              <mxPoint x="3790" y="3010" />
              <mxPoint x="4550" y="3010" />
              <mxPoint x="4550" y="3135" />
              <mxPoint x="4890" y="3135" />
              <mxPoint x="4890" y="2895" />
            </Array>
          </mxGeometry>
        </mxCell>
        <mxCell id="xw4S7eZGQW3ErX5LzovB-44" value="&lt;div&gt;&lt;span style=&quot;background-color: rgb(255 , 255 , 255)&quot;&gt;&lt;b&gt;&lt;font style=&quot;font-size: 48px&quot;&gt;Distributional data&lt;/font&gt;&lt;/b&gt;&lt;/span&gt;&lt;/div&gt;" style="edgeLabel;html=1;align=center;verticalAlign=middle;resizable=0;points=[];fontSize=24;" parent="xw4S7eZGQW3ErX5LzovB-42" vertex="1" connectable="0">
          <mxGeometry x="-0.0065" y="4" relative="1" as="geometry">
            <mxPoint x="-1" as="offset" />
          </mxGeometry>
        </mxCell>
        <mxCell id="xw4S7eZGQW3ErX5LzovB-55" value="&lt;h1&gt;Background data&lt;br&gt;&lt;/h1&gt;&lt;p&gt;THere are a number of ways of taking background data. Each may have different consequences aseach ask slightly different quesitons of the data:&lt;/p&gt;&lt;ul&gt;&lt;li&gt;True random sample - A random sample of the whole area of investigation.&lt;br&gt;&lt;/li&gt;&lt;li&gt;Restricted random sample - A random sample within a set distance around presence points. &lt;br&gt;&lt;/li&gt;&lt;li&gt;Biased random sample - A random sample of the whole area but biased by where there are records for similarly gathered taxa&lt;/li&gt;&lt;li&gt;Quantify obsevers and assess absences based on list completeness &lt;br&gt;&lt;/li&gt;&lt;/ul&gt;&lt;p&gt;&lt;br&gt;&lt;/p&gt;" style="text;html=1;spacing=5;spacingTop=-20;whiteSpace=wrap;overflow=hidden;rounded=0;fillColor=#ffffff;strokeColor=#000000;" parent="WIyWlLk6GJQsqaUBKTNV-1" vertex="1">
          <mxGeometry x="9840" y="925" width="290" height="285" as="geometry" />
        </mxCell>
        <mxCell id="kHVZ-IwuB8bhGgUG1t6H-3" style="edgeStyle=orthogonalEdgeStyle;rounded=1;orthogonalLoop=1;jettySize=auto;html=1;entryX=1;entryY=0.5;entryDx=0;entryDy=0;" parent="WIyWlLk6GJQsqaUBKTNV-1" source="K3oOLh2pZVhGYxKfuLFw-25" target="w-YvjRMWvmcFSU0H_ef8-13" edge="1">
          <mxGeometry relative="1" as="geometry">
            <mxPoint x="1370" y="540" as="targetPoint" />
            <Array as="points">
              <mxPoint x="1350" y="420" />
              <mxPoint x="1350" y="500" />
              <mxPoint x="930" y="500" />
              <mxPoint x="930" y="255" />
            </Array>
          </mxGeometry>
        </mxCell>
        <mxCell id="kHVZ-IwuB8bhGgUG1t6H-11" style="edgeStyle=orthogonalEdgeStyle;rounded=1;orthogonalLoop=1;jettySize=auto;html=1;" parent="WIyWlLk6GJQsqaUBKTNV-1" source="K3oOLh2pZVhGYxKfuLFw-25" target="kHVZ-IwuB8bhGgUG1t6H-10" edge="1">
          <mxGeometry relative="1" as="geometry">
            <Array as="points">
              <mxPoint x="1350" y="420" />
              <mxPoint x="1350" y="520" />
              <mxPoint x="655" y="520" />
            </Array>
          </mxGeometry>
        </mxCell>
        <mxCell id="K3oOLh2pZVhGYxKfuLFw-25" value="&lt;h1&gt;Functional Diversity. Fd&lt;br&gt;&lt;/h1&gt;&lt;p&gt;Measured traits. Various scales &lt;br&gt;&lt;/p&gt;" style="text;html=1;spacing=5;spacingTop=-20;whiteSpace=wrap;overflow=hidden;rounded=0;fontSize=12;fillColor=#ffffff;strokeColor=#000000;" parent="WIyWlLk6GJQsqaUBKTNV-1" vertex="1">
          <mxGeometry x="1110" y="360" width="220" height="120" as="geometry" />
        </mxCell>
        <mxCell id="K3oOLh2pZVhGYxKfuLFw-26" value="&lt;h1&gt;Taxonomic&amp;nbsp; Diversity. Td&lt;br&gt;&lt;/h1&gt;&lt;p&gt;Species presences/abundances&lt;/p&gt;" style="text;html=1;spacing=5;spacingTop=-20;whiteSpace=wrap;overflow=hidden;rounded=0;fontSize=12;fillColor=#ffffff;strokeColor=#000000;" parent="WIyWlLk6GJQsqaUBKTNV-1" vertex="1">
          <mxGeometry x="1110" y="25" width="220" height="130" as="geometry" />
        </mxCell>
        <mxCell id="K3oOLh2pZVhGYxKfuLFw-27" value="" style="endArrow=classic;html=1;exitX=1;exitY=0.5;exitDx=0;exitDy=0;entryX=0;entryY=0.5;entryDx=0;entryDy=0;edgeStyle=orthogonalEdgeStyle;" parent="WIyWlLk6GJQsqaUBKTNV-1" source="i0vj7bkVoeIxhTv1__Wb-79" target="K3oOLh2pZVhGYxKfuLFw-25" edge="1">
          <mxGeometry width="50" height="50" relative="1" as="geometry">
            <mxPoint x="1120" y="470" as="sourcePoint" />
            <mxPoint x="1170" y="420" as="targetPoint" />
          </mxGeometry>
        </mxCell>
        <mxCell id="K3oOLh2pZVhGYxKfuLFw-28" value="" style="endArrow=classic;html=1;exitX=1;exitY=0.5;exitDx=0;exitDy=0;entryX=0;entryY=0.5;entryDx=0;entryDy=0;edgeStyle=orthogonalEdgeStyle;" parent="WIyWlLk6GJQsqaUBKTNV-1" source="i0vj7bkVoeIxhTv1__Wb-79" target="w-YvjRMWvmcFSU0H_ef8-19" edge="1">
          <mxGeometry width="50" height="50" relative="1" as="geometry">
            <mxPoint x="1120" y="470" as="sourcePoint" />
            <mxPoint x="1170" y="420" as="targetPoint" />
          </mxGeometry>
        </mxCell>
        <mxCell id="K3oOLh2pZVhGYxKfuLFw-29" value="" style="endArrow=classic;html=1;exitX=1;exitY=0.5;exitDx=0;exitDy=0;entryX=0.5;entryY=0;entryDx=0;entryDy=0;edgeStyle=orthogonalEdgeStyle;" parent="WIyWlLk6GJQsqaUBKTNV-1" source="K3oOLh2pZVhGYxKfuLFw-26" target="iHcdqhV0YViVewFqACI8-14" edge="1">
          <mxGeometry width="50" height="50" relative="1" as="geometry">
            <mxPoint x="1120" y="470" as="sourcePoint" />
            <mxPoint x="1170" y="420" as="targetPoint" />
          </mxGeometry>
        </mxCell>
        <mxCell id="K3oOLh2pZVhGYxKfuLFw-31" value="" style="endArrow=classic;html=1;exitX=1;exitY=0.5;exitDx=0;exitDy=0;edgeStyle=orthogonalEdgeStyle;entryX=1;entryY=0.5;entryDx=0;entryDy=0;entryPerimeter=0;" parent="WIyWlLk6GJQsqaUBKTNV-1" source="w-YvjRMWvmcFSU0H_ef8-19" target="kHVZ-IwuB8bhGgUG1t6H-1" edge="1">
          <mxGeometry width="50" height="50" relative="1" as="geometry">
            <mxPoint x="1120" y="470" as="sourcePoint" />
            <mxPoint x="990.909090909091" y="520" as="targetPoint" />
            <Array as="points">
              <mxPoint x="1410" y="255" />
              <mxPoint x="1410" y="570" />
              <mxPoint x="980" y="570" />
              <mxPoint x="980" y="620" />
            </Array>
          </mxGeometry>
        </mxCell>
        <mxCell id="mfQDYrMZqN6Y804PRQHQ-64" style="edgeStyle=orthogonalEdgeStyle;rounded=1;orthogonalLoop=1;jettySize=auto;html=1;entryX=0.5;entryY=0;entryDx=0;entryDy=0;fontSize=24;exitX=0.5;exitY=1;exitDx=0;exitDy=0;exitPerimeter=0;" parent="WIyWlLk6GJQsqaUBKTNV-1" source="kHVZ-IwuB8bhGgUG1t6H-1" target="mfQDYrMZqN6Y804PRQHQ-61" edge="1">
          <mxGeometry relative="1" as="geometry">
            <mxPoint x="830" y="1040" as="sourcePoint" />
            <Array as="points">
              <mxPoint x="860" y="713" />
              <mxPoint x="860" y="1120" />
              <mxPoint x="930" y="1120" />
              <mxPoint x="930" y="1790" />
              <mxPoint x="590" y="1790" />
            </Array>
          </mxGeometry>
        </mxCell>
        <mxCell id="kHVZ-IwuB8bhGgUG1t6H-1" value="Genetic data used to create Phyolgenetic trees from samples or Data base eg Genbank" style="shape=cylinder3;whiteSpace=wrap;html=1;boundedLbl=1;backgroundOutline=1;size=15;" parent="WIyWlLk6GJQsqaUBKTNV-1" vertex="1">
          <mxGeometry x="790" y="572.57" width="150" height="140" as="geometry" />
        </mxCell>
        <mxCell id="w-YvjRMWvmcFSU0H_ef8-19" value="&lt;h1&gt;Phylogenetic Diversity. Pd&lt;br&gt;&lt;/h1&gt;&lt;p&gt;Phylogentic distances or trees&lt;br&gt;&lt;/p&gt;" style="text;html=1;spacing=5;spacingTop=-20;whiteSpace=wrap;overflow=hidden;rounded=0;fontSize=12;fillColor=#ffffff;strokeColor=#000000;" parent="WIyWlLk6GJQsqaUBKTNV-1" vertex="1">
          <mxGeometry x="1110" y="175" width="220" height="160" as="geometry" />
        </mxCell>
        <mxCell id="kHVZ-IwuB8bhGgUG1t6H-4" value="&lt;h1 style=&quot;font-size: 40px&quot;&gt;&lt;font style=&quot;font-size: 40px&quot;&gt;Biodiversity &lt;br&gt;&lt;/font&gt;&lt;/h1&gt;" style="rounded=0;whiteSpace=wrap;html=1;labelBackgroundColor=none;strokeColor=#000000;fillColor=#ffffff;gradientColor=#ffffff;fontSize=12;" parent="WIyWlLk6GJQsqaUBKTNV-1" vertex="1">
          <mxGeometry x="650" y="60" width="250" height="60" as="geometry" />
        </mxCell>
        <mxCell id="kHVZ-IwuB8bhGgUG1t6H-7" style="edgeStyle=orthogonalEdgeStyle;rounded=1;orthogonalLoop=1;jettySize=auto;html=1;entryX=0;entryY=0.5;entryDx=0;entryDy=0;" parent="WIyWlLk6GJQsqaUBKTNV-1" source="kHVZ-IwuB8bhGgUG1t6H-5" target="w-YvjRMWvmcFSU0H_ef8-13" edge="1">
          <mxGeometry relative="1" as="geometry" />
        </mxCell>
        <mxCell id="kHVZ-IwuB8bhGgUG1t6H-8" style="edgeStyle=orthogonalEdgeStyle;rounded=1;orthogonalLoop=1;jettySize=auto;html=1;entryX=1;entryY=0.5;entryDx=0;entryDy=0;" parent="WIyWlLk6GJQsqaUBKTNV-1" source="kHVZ-IwuB8bhGgUG1t6H-5" target="w-YvjRMWvmcFSU0H_ef8-9" edge="1">
          <mxGeometry relative="1" as="geometry" />
        </mxCell>
        <mxCell id="kHVZ-IwuB8bhGgUG1t6H-5" value="&lt;h1 style=&quot;font-size: 40px&quot;&gt;&lt;font style=&quot;font-size: 40px&quot;&gt;Environmental &lt;br&gt;&lt;/font&gt;&lt;/h1&gt;" style="rounded=0;whiteSpace=wrap;html=1;labelBackgroundColor=none;strokeColor=#000000;fillColor=#ffffff;gradientColor=#ffffff;fontSize=12;" parent="WIyWlLk6GJQsqaUBKTNV-1" vertex="1">
          <mxGeometry x="310" y="150" width="300" height="60" as="geometry" />
        </mxCell>
        <mxCell id="mfQDYrMZqN6Y804PRQHQ-63" style="edgeStyle=orthogonalEdgeStyle;rounded=1;orthogonalLoop=1;jettySize=auto;html=1;fontSize=24;" parent="WIyWlLk6GJQsqaUBKTNV-1" source="kHVZ-IwuB8bhGgUG1t6H-10" target="mfQDYrMZqN6Y804PRQHQ-61" edge="1">
          <mxGeometry relative="1" as="geometry">
            <Array as="points">
              <mxPoint x="660" y="1120" />
              <mxPoint x="930" y="1120" />
              <mxPoint x="930" y="1790" />
              <mxPoint x="590" y="1790" />
            </Array>
          </mxGeometry>
        </mxCell>
        <mxCell id="kHVZ-IwuB8bhGgUG1t6H-10" value="&lt;div&gt;Trait data from established data tables or created from&amp;nbsp; published trait data including databases such as TRY. &lt;br&gt;&lt;/div&gt;&lt;div&gt;&lt;br&gt;&lt;/div&gt;" style="shape=cylinder3;whiteSpace=wrap;html=1;boundedLbl=1;backgroundOutline=1;size=15;" parent="WIyWlLk6GJQsqaUBKTNV-1" vertex="1">
          <mxGeometry x="585" y="572.57" width="150" height="140" as="geometry" />
        </mxCell>
        <mxCell id="kHVZ-IwuB8bhGgUG1t6H-37" value="" style="endArrow=classic;html=1;fontSize=24;edgeStyle=orthogonalEdgeStyle;exitX=0.5;exitY=1;exitDx=0;exitDy=0;" parent="WIyWlLk6GJQsqaUBKTNV-1" source="hmOcISKYs5yDdYKpSmGY-7" target="6e8Cwwr0hj-UMSGpgfXc-10" edge="1">
          <mxGeometry width="50" height="50" relative="1" as="geometry">
            <mxPoint x="1510" y="3020" as="sourcePoint" />
            <mxPoint x="1180" y="3060" as="targetPoint" />
            <Array as="points">
              <mxPoint x="3790" y="1970" />
              <mxPoint x="4940" y="1970" />
              <mxPoint x="4940" y="1280" />
            </Array>
          </mxGeometry>
        </mxCell>
        <mxCell id="kHVZ-IwuB8bhGgUG1t6H-38" value="&lt;div&gt;&lt;b&gt;&lt;font style=&quot;font-size: 48px&quot;&gt;Diversity&lt;/font&gt;&lt;/b&gt;&lt;/div&gt;&lt;div&gt;&lt;b&gt;&lt;font style=&quot;font-size: 24px&quot;&gt;&lt;br&gt;&lt;/font&gt;&lt;/b&gt;&lt;/div&gt;" style="edgeLabel;html=1;align=center;verticalAlign=middle;resizable=0;points=[];fontSize=24;" parent="kHVZ-IwuB8bhGgUG1t6H-37" vertex="1" connectable="0">
          <mxGeometry x="-0.1293" y="1" relative="1" as="geometry">
            <mxPoint x="-1" as="offset" />
          </mxGeometry>
        </mxCell>
        <mxCell id="hmOcISKYs5yDdYKpSmGY-16" style="edgeStyle=orthogonalEdgeStyle;rounded=1;orthogonalLoop=1;jettySize=auto;html=1;fontSize=24;" parent="WIyWlLk6GJQsqaUBKTNV-1" source="sg-I6Dr9140E_a6tFQ04-0" target="hmOcISKYs5yDdYKpSmGY-12" edge="1">
          <mxGeometry relative="1" as="geometry" />
        </mxCell>
        <mxCell id="sg-I6Dr9140E_a6tFQ04-0" value="&lt;h1&gt;Remote Data sources&lt;br&gt;&lt;/h1&gt;&lt;p&gt;MODIS.&lt;/p&gt;&lt;p&gt;&lt;b&gt;Rl libraries: MODIS&lt;/b&gt;&lt;br&gt;&lt;/p&gt;" style="text;html=1;spacing=5;spacingTop=-20;whiteSpace=wrap;overflow=hidden;rounded=0;fillColor=#ffffff;strokeColor=#000000;" parent="WIyWlLk6GJQsqaUBKTNV-1" vertex="1">
          <mxGeometry x="285" y="750" width="260" height="140" as="geometry" />
        </mxCell>
        <mxCell id="hmOcISKYs5yDdYKpSmGY-15" style="edgeStyle=orthogonalEdgeStyle;rounded=1;orthogonalLoop=1;jettySize=auto;html=1;entryX=0.5;entryY=0;entryDx=0;entryDy=0;fontSize=24;" parent="WIyWlLk6GJQsqaUBKTNV-1" source="sg-I6Dr9140E_a6tFQ04-1" target="hmOcISKYs5yDdYKpSmGY-12" edge="1">
          <mxGeometry relative="1" as="geometry" />
        </mxCell>
        <mxCell id="sg-I6Dr9140E_a6tFQ04-1" value="&lt;h1&gt;Static data sources&lt;br&gt;&lt;/h1&gt;&lt;div&gt;&lt;b&gt;Worldclim - &lt;br&gt;&lt;/b&gt;&lt;/div&gt;&lt;div&gt;&lt;b&gt;&lt;br&gt;&lt;/b&gt;&lt;/div&gt;&lt;div&gt;&lt;br&gt;&lt;div&gt;&lt;b&gt;Climond&lt;/b&gt;&lt;/div&gt;&lt;div&gt;&lt;b&gt;&lt;br&gt;&lt;br&gt;&lt;/b&gt;&lt;/div&gt;&lt;/div&gt;&lt;div&gt;&lt;b&gt;Skogstyrelsen&lt;/b&gt;&lt;/div&gt;&lt;div&gt;&lt;b&gt;&lt;br&gt;&lt;/b&gt;&lt;/div&gt;&lt;br&gt;&lt;div&gt;&lt;b&gt;Eu data&lt;/b&gt;&lt;/div&gt;&lt;div&gt;&lt;b&gt;&lt;br&gt;&lt;/b&gt;&lt;/div&gt;&lt;div&gt;&lt;b&gt;&lt;br&gt;&lt;/b&gt;&lt;/div&gt;" style="text;html=1;spacing=5;spacingTop=-20;whiteSpace=wrap;overflow=hidden;rounded=0;fillColor=#ffffff;strokeColor=#000000;" parent="WIyWlLk6GJQsqaUBKTNV-1" vertex="1">
          <mxGeometry x="-1.25" y="750" width="260" height="220" as="geometry" />
        </mxCell>
        <mxCell id="hmOcISKYs5yDdYKpSmGY-14" value="" style="group" parent="WIyWlLk6GJQsqaUBKTNV-1" vertex="1" connectable="0">
          <mxGeometry x="180" y="1090" width="340" height="250" as="geometry" />
        </mxCell>
        <mxCell id="hmOcISKYs5yDdYKpSmGY-12" value="A" style="rhombus;whiteSpace=wrap;html=1;align=left;" parent="hmOcISKYs5yDdYKpSmGY-14" vertex="1">
          <mxGeometry width="340" height="250" as="geometry" />
        </mxCell>
        <mxCell id="hmOcISKYs5yDdYKpSmGY-13" value="Are the environmental data at an appropriate resolution?" style="text;html=1;strokeColor=none;fillColor=none;align=center;verticalAlign=middle;whiteSpace=wrap;rounded=0;fontSize=24;" parent="hmOcISKYs5yDdYKpSmGY-14" vertex="1">
          <mxGeometry x="105" y="115" width="130" height="20" as="geometry" />
        </mxCell>
        <mxCell id="hmOcISKYs5yDdYKpSmGY-20" value="Appropriately aggregate the data. " style="rounded=0;whiteSpace=wrap;html=1;fontSize=24;align=left;" parent="WIyWlLk6GJQsqaUBKTNV-1" vertex="1">
          <mxGeometry x="440" y="1350" width="435" height="190" as="geometry" />
        </mxCell>
        <mxCell id="hmOcISKYs5yDdYKpSmGY-23" style="edgeStyle=orthogonalEdgeStyle;rounded=1;orthogonalLoop=1;jettySize=auto;html=1;fontSize=24;entryX=0.5;entryY=0;entryDx=0;entryDy=0;" parent="WIyWlLk6GJQsqaUBKTNV-1" source="hmOcISKYs5yDdYKpSmGY-12" target="hmOcISKYs5yDdYKpSmGY-20" edge="1">
          <mxGeometry relative="1" as="geometry">
            <mxPoint x="830" y="1290" as="targetPoint" />
            <Array as="points">
              <mxPoint x="658" y="1215" />
            </Array>
          </mxGeometry>
        </mxCell>
        <mxCell id="hmOcISKYs5yDdYKpSmGY-24" value="Not big enough" style="edgeLabel;html=1;align=center;verticalAlign=middle;resizable=0;points=[];fontSize=24;" parent="hmOcISKYs5yDdYKpSmGY-23" vertex="1" connectable="0">
          <mxGeometry x="-0.1119" relative="1" as="geometry">
            <mxPoint x="-1" as="offset" />
          </mxGeometry>
        </mxCell>
        <mxCell id="hmOcISKYs5yDdYKpSmGY-25" style="edgeStyle=orthogonalEdgeStyle;rounded=1;orthogonalLoop=1;jettySize=auto;html=1;fontSize=24;entryX=0.5;entryY=0;entryDx=0;entryDy=0;" parent="WIyWlLk6GJQsqaUBKTNV-1" source="hmOcISKYs5yDdYKpSmGY-12" target="hmOcISKYs5yDdYKpSmGY-36" edge="1">
          <mxGeometry relative="1" as="geometry">
            <mxPoint x="-110" y="1340" as="targetPoint" />
            <Array as="points">
              <mxPoint x="-162" y="1215" />
            </Array>
          </mxGeometry>
        </mxCell>
        <mxCell id="hmOcISKYs5yDdYKpSmGY-26" value="Not fine scaled enough" style="edgeLabel;html=1;align=center;verticalAlign=middle;resizable=0;points=[];fontSize=24;" parent="hmOcISKYs5yDdYKpSmGY-25" vertex="1" connectable="0">
          <mxGeometry x="-0.2634" y="1" relative="1" as="geometry">
            <mxPoint x="-1" as="offset" />
          </mxGeometry>
        </mxCell>
        <mxCell id="mfQDYrMZqN6Y804PRQHQ-65" style="edgeStyle=orthogonalEdgeStyle;rounded=1;orthogonalLoop=1;jettySize=auto;html=1;entryX=0;entryY=0.75;entryDx=0;entryDy=0;fontSize=24;" parent="WIyWlLk6GJQsqaUBKTNV-1" source="hmOcISKYs5yDdYKpSmGY-36" target="mfQDYrMZqN6Y804PRQHQ-61" edge="1">
          <mxGeometry relative="1" as="geometry">
            <Array as="points">
              <mxPoint x="-163" y="1810" />
              <mxPoint x="280" y="1810" />
              <mxPoint x="280" y="2075" />
            </Array>
          </mxGeometry>
        </mxCell>
        <mxCell id="hmOcISKYs5yDdYKpSmGY-36" value="&lt;h1&gt;Fine scale microclimates&lt;br&gt;&lt;/h1&gt;&lt;p&gt;Microclimates may be calculated in R following Kearney et al (2019) (&lt;a href=&quot;https://doi.org/10.1111/2041-210X.13330&quot;&gt;https://doi.org/10.1111/2041-210X.13330&lt;/a&gt;). They&amp;nbsp; provide a procedure for realistically estimating conditions at fine scale (&amp;lt;30m) at any time post 1957. &lt;br&gt;&lt;/p&gt;&lt;p&gt;&lt;b&gt;R libaries: N&lt;span class=&quot;smallCaps&quot;&gt;iche&lt;/span&gt;M&lt;span class=&quot;smallCaps&quot;&gt;ap&lt;/span&gt;R, &lt;span class=&quot;smallCaps&quot;&gt;microclima,&lt;/span&gt;&lt;span class=&quot;smallCaps&quot;&gt;elevatr and &lt;/span&gt;&lt;span class=&quot;smallCaps&quot;&gt;rncep&lt;/span&gt;&lt;/b&gt; &lt;/p&gt;" style="text;html=1;spacing=5;spacingTop=-20;whiteSpace=wrap;overflow=hidden;rounded=0;fillColor=#ffffff;strokeColor=#000000;" parent="WIyWlLk6GJQsqaUBKTNV-1" vertex="1">
          <mxGeometry x="-382.5" y="1460" width="440" height="160" as="geometry" />
        </mxCell>
        <mxCell id="mfQDYrMZqN6Y804PRQHQ-56" style="edgeStyle=orthogonalEdgeStyle;rounded=1;orthogonalLoop=1;jettySize=auto;html=1;fontSize=24;" parent="WIyWlLk6GJQsqaUBKTNV-1" source="mfQDYrMZqN6Y804PRQHQ-8" target="xw4S7eZGQW3ErX5LzovB-9" edge="1">
          <mxGeometry relative="1" as="geometry">
            <Array as="points">
              <mxPoint x="3050" y="1161" />
              <mxPoint x="3050" y="740" />
              <mxPoint x="4025" y="740" />
            </Array>
          </mxGeometry>
        </mxCell>
        <mxCell id="mfQDYrMZqN6Y804PRQHQ-57" style="edgeStyle=orthogonalEdgeStyle;rounded=1;orthogonalLoop=1;jettySize=auto;html=1;fontSize=24;" parent="WIyWlLk6GJQsqaUBKTNV-1" source="mfQDYrMZqN6Y804PRQHQ-8" target="xw4S7eZGQW3ErX5LzovB-7" edge="1">
          <mxGeometry relative="1" as="geometry">
            <Array as="points">
              <mxPoint x="2970" y="1161" />
              <mxPoint x="2970" y="750" />
              <mxPoint x="3180" y="750" />
              <mxPoint x="3180" y="730" />
              <mxPoint x="4536" y="730" />
            </Array>
          </mxGeometry>
        </mxCell>
        <mxCell id="mfQDYrMZqN6Y804PRQHQ-58" style="edgeStyle=orthogonalEdgeStyle;rounded=1;orthogonalLoop=1;jettySize=auto;html=1;entryX=0.5;entryY=0;entryDx=0;entryDy=0;fontSize=24;" parent="WIyWlLk6GJQsqaUBKTNV-1" source="mfQDYrMZqN6Y804PRQHQ-8" target="xw4S7eZGQW3ErX5LzovB-8" edge="1">
          <mxGeometry relative="1" as="geometry">
            <Array as="points">
              <mxPoint x="3000" y="1161" />
              <mxPoint x="3000" y="740" />
              <mxPoint x="3190" y="740" />
              <mxPoint x="3190" y="710" />
              <mxPoint x="3745" y="710" />
            </Array>
          </mxGeometry>
        </mxCell>
        <mxCell id="mfQDYrMZqN6Y804PRQHQ-59" style="edgeStyle=orthogonalEdgeStyle;rounded=1;orthogonalLoop=1;jettySize=auto;html=1;entryX=0.5;entryY=0;entryDx=0;entryDy=0;fontSize=24;" parent="WIyWlLk6GJQsqaUBKTNV-1" source="mfQDYrMZqN6Y804PRQHQ-8" target="xw4S7eZGQW3ErX5LzovB-22" edge="1">
          <mxGeometry relative="1" as="geometry">
            <Array as="points">
              <mxPoint x="3000" y="1161" />
              <mxPoint x="3000" y="740" />
              <mxPoint x="3180" y="740" />
              <mxPoint x="3180" y="730" />
              <mxPoint x="3430" y="730" />
            </Array>
          </mxGeometry>
        </mxCell>
        <mxCell id="mfQDYrMZqN6Y804PRQHQ-8" value="&lt;h1&gt;Data&lt;/h1&gt;&lt;p&gt;This should be a data set for which is taxonomically accurate and with knowledge of spatial errors &lt;br&gt;&lt;/p&gt;" style="text;html=1;spacing=5;spacingTop=-20;whiteSpace=wrap;overflow=hidden;rounded=0;fillColor=#ffffff;strokeColor=#000000;" parent="WIyWlLk6GJQsqaUBKTNV-1" vertex="1">
          <mxGeometry x="2540" y="1100.8600000000001" width="275.5" height="120" as="geometry" />
        </mxCell>
        <mxCell id="mfQDYrMZqN6Y804PRQHQ-33" value="&lt;font style=&quot;font-size: 12px&quot;&gt;Do you have true absences?&lt;/font&gt;" style="rhombus;whiteSpace=wrap;html=1;strokeColor=#000000;fillColor=#ffffff;gradientColor=none;fontSize=24;" parent="WIyWlLk6GJQsqaUBKTNV-1" vertex="1">
          <mxGeometry x="9480" y="980" width="180" height="165" as="geometry" />
        </mxCell>
        <mxCell id="mfQDYrMZqN6Y804PRQHQ-61" value="&lt;h1&gt;Biodiversity covarites&lt;br&gt;&lt;/h1&gt;&lt;div&gt;&lt;b&gt;Data in an approriate format for the type of analysis that is aimed for. This could be:&lt;/b&gt;&lt;/div&gt;&lt;div&gt;&lt;b&gt;&lt;br&gt;&lt;/b&gt;&lt;/div&gt;&lt;div&gt;&lt;ul&gt;&lt;li&gt;&lt;b&gt;Enviornmental covariates&lt;/b&gt;&lt;/li&gt;&lt;li&gt;&lt;b&gt;Genetic data&lt;/b&gt;&lt;/li&gt;&lt;li&gt;&lt;b&gt;Trait data&lt;/b&gt;&lt;/li&gt;&lt;/ul&gt;&lt;div&gt;&lt;b&gt;THis may also be in differnt data forms. eg:&lt;/b&gt;&lt;/div&gt;&lt;div&gt;&lt;b&gt;&lt;br&gt;&lt;/b&gt;&lt;/div&gt;&lt;div&gt;&lt;ul&gt;&lt;li&gt;&lt;b&gt;Data frames &lt;br&gt;&lt;/b&gt;&lt;/li&gt;&lt;li&gt;&lt;b&gt;Gridded data including rasters&lt;br&gt;&lt;/b&gt;&lt;/li&gt;&lt;/ul&gt;&lt;/div&gt;&lt;/div&gt;&lt;div&gt;&lt;b&gt;&lt;br&gt;&lt;/b&gt;&lt;/div&gt;" style="text;html=1;spacing=5;spacingTop=-20;whiteSpace=wrap;overflow=hidden;rounded=0;fillColor=#ffffff;strokeColor=#000000;" parent="WIyWlLk6GJQsqaUBKTNV-1" vertex="1">
          <mxGeometry x="360" y="1930" width="260" height="260" as="geometry" />
        </mxCell>
        <mxCell id="6e8Cwwr0hj-UMSGpgfXc-11" value="" style="edgeStyle=orthogonalEdgeStyle;rounded=1;orthogonalLoop=1;jettySize=auto;html=1;fontSize=20;" parent="WIyWlLk6GJQsqaUBKTNV-1" source="6e8Cwwr0hj-UMSGpgfXc-10" target="mfQDYrMZqN6Y804PRQHQ-11" edge="1">
          <mxGeometry relative="1" as="geometry" />
        </mxCell>
        <mxCell id="6e8Cwwr0hj-UMSGpgfXc-10" value="Are the data at an appropriate scale? Over large regions with differing ammounts of survey effort it may be reasonable to use&amp;nbsp; the out puts of Species distribution Models." style="rhombus;whiteSpace=wrap;html=1;strokeColor=#000000;fillColor=#ffffff;" parent="WIyWlLk6GJQsqaUBKTNV-1" vertex="1">
          <mxGeometry x="5100" y="1170" width="240" height="220" as="geometry" />
        </mxCell>
        <mxCell id="6e8Cwwr0hj-UMSGpgfXc-7" value="&lt;h1 style=&quot;font-size: 20px&quot;&gt;Analyses for IUCN Red data book &lt;br&gt;&lt;/h1&gt;&lt;p style=&quot;font-size: 20px&quot;&gt;A range of functions for the analysis of biodiversity data in relation to the IUCN red data criterea&lt;/p&gt;&lt;p style=&quot;font-size: 20px&quot;&gt;&lt;b&gt;R library: Red&lt;/b&gt;&lt;br&gt;&lt;/p&gt;" style="text;html=1;fillColor=none;spacing=5;spacingTop=-20;whiteSpace=wrap;overflow=hidden;rounded=0;fontSize=20;strokeColor=#000000;" parent="WIyWlLk6GJQsqaUBKTNV-1" vertex="1">
          <mxGeometry x="6260" y="2260" width="350" height="195" as="geometry" />
        </mxCell>
        <mxCell id="6e8Cwwr0hj-UMSGpgfXc-29" style="edgeStyle=orthogonalEdgeStyle;rounded=1;orthogonalLoop=1;jettySize=auto;html=1;entryX=0;entryY=0.5;entryDx=0;entryDy=0;fontSize=20;" parent="WIyWlLk6GJQsqaUBKTNV-1" source="6e8Cwwr0hj-UMSGpgfXc-5" target="6e8Cwwr0hj-UMSGpgfXc-7" edge="1">
          <mxGeometry relative="1" as="geometry" />
        </mxCell>
        <mxCell id="Vn1AuMzDJVdrEZINoW1q-0" value="" style="group" vertex="1" connectable="0" parent="WIyWlLk6GJQsqaUBKTNV-1">
          <mxGeometry x="-2240" y="300" width="1290" height="900" as="geometry" />
        </mxCell>
        <mxCell id="K3oOLh2pZVhGYxKfuLFw-12" value="&lt;h1&gt;Data forms&lt;br&gt;&lt;/h1&gt;&lt;p&gt;&lt;br&gt;&lt;/p&gt;" style="text;html=1;spacing=5;spacingTop=-20;whiteSpace=wrap;overflow=hidden;rounded=0;fillColor=#ffffff;strokeColor=#000000;" parent="Vn1AuMzDJVdrEZINoW1q-0" vertex="1">
          <mxGeometry width="1290" height="900" as="geometry" />
        </mxCell>
        <mxCell id="K3oOLh2pZVhGYxKfuLFw-11" value="&lt;h1&gt;Wide form data&lt;br&gt;&lt;/h1&gt;&lt;p&gt;Each data point is a single row and the data attributes are represented byt the columns . The most widely used example is species community data. These represent species presences at each sample point&lt;/p&gt;&lt;p&gt;&lt;/p&gt;&lt;table style=&quot;border: 1px solid rgb(0 , 0 , 0) ; border-collapse: collapse&quot; cellpadding=&quot;10&quot; border=&quot;1&quot;&gt;&lt;tbody&gt;&lt;tr&gt;&lt;td align=&quot;center&quot;&gt;&lt;br&gt;&lt;/td&gt;&lt;td align=&quot;center&quot;&gt;Sample 1a&lt;br&gt;&lt;/td&gt;&lt;td align=&quot;center&quot;&gt;Sample 1b&lt;br&gt;&lt;/td&gt;&lt;td style=&quot;border-collapse: collapse&quot; align=&quot;center&quot;&gt;Sample 2a&lt;br&gt;&lt;/td&gt;&lt;/tr&gt;&lt;tr&gt;&lt;td align=&quot;center&quot;&gt;Species 1&lt;br&gt;&lt;/td&gt;&lt;td align=&quot;center&quot;&gt;12&lt;br&gt;&lt;/td&gt;&lt;td align=&quot;center&quot;&gt;4&lt;br&gt;&lt;/td&gt;&lt;td align=&quot;center&quot;&gt;0&lt;br&gt;&lt;/td&gt;&lt;/tr&gt;&lt;tr&gt;&lt;td align=&quot;center&quot;&gt;Species 2&lt;br&gt;&lt;/td&gt;&lt;td align=&quot;center&quot;&gt;2&lt;br&gt;&lt;/td&gt;&lt;td align=&quot;center&quot;&gt;0&lt;br&gt;&lt;/td&gt;&lt;td align=&quot;center&quot;&gt;5&lt;br&gt;&lt;/td&gt;&lt;/tr&gt;&lt;tr&gt;&lt;td align=&quot;center&quot;&gt;Species 3&lt;br&gt;&lt;/td&gt;&lt;td align=&quot;center&quot;&gt;0&lt;br&gt;&lt;/td&gt;&lt;td align=&quot;center&quot;&gt;0&lt;br&gt;&lt;/td&gt;&lt;td align=&quot;center&quot;&gt;6&lt;br&gt;&lt;/td&gt;&lt;/tr&gt;&lt;/tbody&gt;&lt;/table&gt;&lt;br&gt;&lt;p&gt;&lt;/p&gt;" style="text;html=1;spacing=5;spacingTop=-20;whiteSpace=wrap;overflow=hidden;rounded=0;fillColor=#d5e8d4;strokeColor=#82b366;" parent="Vn1AuMzDJVdrEZINoW1q-0" vertex="1">
          <mxGeometry x="30" y="570" width="460" height="268.79" as="geometry" />
        </mxCell>
        <mxCell id="K3oOLh2pZVhGYxKfuLFw-13" value="&lt;h1&gt;Long form data&lt;br&gt;&lt;/h1&gt;&lt;p&gt;Each row represents a data point, with as many columns as there are attributes of the data&lt;/p&gt;&lt;table style=&quot;border: 1px solid rgb(51 , 51 , 51) ; border-collapse: collapse&quot; cellpadding=&quot;10&quot; border=&quot;1&quot;&gt;&lt;tbody&gt;&lt;tr&gt;&lt;td&gt;Species&lt;br&gt;&lt;/td&gt;&lt;td&gt;site&lt;br&gt;&lt;/td&gt;&lt;td&gt;sample&lt;br&gt;&lt;/td&gt;&lt;td&gt;X&lt;/td&gt;&lt;td&gt;Y&lt;/td&gt;&lt;td&gt;Quantity&lt;/td&gt;&lt;td&gt;Phenotype&lt;sub&gt;ij&lt;/sub&gt;&lt;br&gt;&lt;/td&gt;&lt;td&gt;Env&lt;sub&gt;ij&lt;/sub&gt;&lt;br&gt;&lt;/td&gt;&lt;/tr&gt;&lt;tr&gt;&lt;td&gt;Species 1&lt;br&gt;&lt;/td&gt;&lt;td&gt;1&lt;br&gt;&lt;/td&gt;&lt;td&gt;a&lt;br&gt;&lt;/td&gt;&lt;td&gt;1&lt;br&gt;&lt;/td&gt;&lt;td&gt;2&lt;br&gt;&lt;/td&gt;&lt;td&gt;12&lt;br&gt;&lt;/td&gt;&lt;td&gt;XXXX&lt;br&gt;&lt;/td&gt;&lt;td&gt;YYY&lt;br&gt;&lt;/td&gt;&lt;/tr&gt;&lt;tr&gt;&lt;td&gt;Species 2&lt;br&gt;&lt;/td&gt;&lt;td&gt;1&lt;br&gt;&lt;/td&gt;&lt;td&gt;a&lt;br&gt;&lt;/td&gt;&lt;td&gt;1&lt;br&gt;&lt;/td&gt;&lt;td&gt;2&lt;br&gt;&lt;/td&gt;&lt;td&gt;2&lt;br&gt;&lt;/td&gt;&lt;td&gt;XXXX&lt;br&gt;&lt;/td&gt;&lt;td&gt;YYY&lt;/td&gt;&lt;/tr&gt;&lt;tr&gt;&lt;td&gt;Species 1&lt;br&gt;&lt;/td&gt;&lt;td&gt;1&lt;br&gt;&lt;/td&gt;&lt;td&gt;b&lt;br&gt;&lt;/td&gt;&lt;td&gt;3&lt;br&gt;&lt;/td&gt;&lt;td&gt;4&lt;br&gt;&lt;/td&gt;&lt;td&gt;4&lt;br&gt;&lt;/td&gt;&lt;td&gt;XXXX&lt;br&gt;&lt;/td&gt;&lt;td&gt;YYY&lt;br&gt;&lt;/td&gt;&lt;/tr&gt;&lt;tr&gt;&lt;td&gt;Species 2&lt;br&gt;&lt;/td&gt;&lt;td&gt;2&lt;br&gt;&lt;/td&gt;&lt;td&gt;a&lt;br&gt;&lt;/td&gt;&lt;td&gt;5&lt;br&gt;&lt;/td&gt;&lt;td&gt;6&lt;br&gt;&lt;/td&gt;&lt;td&gt;5&lt;br&gt;&lt;/td&gt;&lt;td&gt;XXXX&lt;br&gt;&lt;/td&gt;&lt;td&gt;YYY&lt;br&gt;&lt;/td&gt;&lt;/tr&gt;&lt;tr&gt;&lt;td&gt;Species 3&lt;br&gt;&lt;/td&gt;&lt;td&gt;2&lt;br&gt;&lt;/td&gt;&lt;td&gt;a&lt;br&gt;&lt;/td&gt;&lt;td&gt;5&lt;br&gt;&lt;/td&gt;&lt;td&gt;6&lt;br&gt;&lt;/td&gt;&lt;td&gt;6&lt;br&gt;&lt;/td&gt;&lt;td&gt;XXXX&lt;br&gt;&lt;/td&gt;&lt;td&gt;YYY&lt;br&gt;&lt;/td&gt;&lt;/tr&gt;&lt;/tbody&gt;&lt;/table&gt;&lt;br&gt;&lt;p&gt;&lt;/p&gt;" style="text;html=1;spacing=5;spacingTop=-20;whiteSpace=wrap;overflow=hidden;rounded=0;fillColor=#fff2cc;strokeColor=#d6b656;" parent="Vn1AuMzDJVdrEZINoW1q-0" vertex="1">
          <mxGeometry x="20" y="50" width="470" height="330" as="geometry" />
        </mxCell>
        <mxCell id="K3oOLh2pZVhGYxKfuLFw-14" value="" style="verticalLabelPosition=bottom;verticalAlign=top;html=1;strokeWidth=2;shape=mxgraph.arrows2.arrow;dy=0.6;dx=40;notch=0;fillColor=#ffffff;rotation=90;" parent="Vn1AuMzDJVdrEZINoW1q-0" vertex="1">
          <mxGeometry x="-10" y="440" width="160" height="70" as="geometry" />
        </mxCell>
        <mxCell id="K3oOLh2pZVhGYxKfuLFw-39" value="" style="verticalLabelPosition=bottom;verticalAlign=top;html=1;strokeWidth=2;shape=mxgraph.arrows2.arrow;dy=0.6;dx=40;notch=0;fillColor=#ffffff;rotation=270;" parent="Vn1AuMzDJVdrEZINoW1q-0" vertex="1">
          <mxGeometry x="350" y="440" width="160" height="70" as="geometry" />
        </mxCell>
        <mxCell id="K3oOLh2pZVhGYxKfuLFw-45" value="" style="group" parent="Vn1AuMzDJVdrEZINoW1q-0" vertex="1" connectable="0">
          <mxGeometry x="790" y="50" width="450" height="790" as="geometry" />
        </mxCell>
        <mxCell id="K3oOLh2pZVhGYxKfuLFw-38" value="&lt;h1&gt;Spatial data&lt;/h1&gt;&lt;div&gt;Spatial data data are data with associated positional information. They are most associated with landscape data though their methods do not have to be. For global data there should be a Coordinate Reference System attached to the data. There are multiple software platforms for displaing and analysing them including, but not limited to:&lt;/div&gt;&lt;div&gt;&lt;ul&gt;&lt;li&gt;Qgis&lt;/li&gt;&lt;li&gt;Esri ArcGIS&lt;/li&gt;&lt;li&gt;&lt;br&gt;&lt;/li&gt;&lt;/ul&gt;&lt;/div&gt;&lt;p&gt;In the R environment the most common packages used are:&lt;/p&gt;&lt;ul&gt;&lt;li&gt;sp: Classes and Methods for spatial data&lt;br&gt;&lt;/li&gt;&lt;li&gt;raster: Geographic data analysis and modelling&lt;br&gt;&lt;/li&gt;&lt;li&gt;sf: : Simple features for R&lt;br&gt;&lt;/li&gt;&lt;/ul&gt;" style="text;html=1;spacing=5;spacingTop=-20;whiteSpace=wrap;overflow=hidden;rounded=0;fillColor=#ffffff;strokeColor=#000000;" parent="K3oOLh2pZVhGYxKfuLFw-45" vertex="1">
          <mxGeometry width="450" height="790.0000000000001" as="geometry" />
        </mxCell>
        <mxCell id="K3oOLh2pZVhGYxKfuLFw-42" value="&lt;h1&gt;Vector data &lt;br&gt;&lt;/h1&gt;&lt;p&gt;In the simplest forms these are points but can also include lines and polygons. Such shapes may have aditional information attached to them eg data frames&lt;br&gt;&lt;/p&gt;" style="text;html=1;spacing=5;spacingTop=-20;whiteSpace=wrap;overflow=hidden;rounded=0;fillColor=#ffffff;strokeColor=#000000;" parent="K3oOLh2pZVhGYxKfuLFw-45" vertex="1">
          <mxGeometry x="10" y="329.1666666666667" width="430" height="131.66666666666669" as="geometry" />
        </mxCell>
        <mxCell id="K3oOLh2pZVhGYxKfuLFw-43" value="&lt;h1&gt;Gridded data&lt;br&gt;&lt;/h1&gt;&lt;p&gt;Gridded data are evenly spaced data sets . Grids do not have to&amp;nbsp; be square. Each point in the grid may have additional information attached to it.&lt;br&gt;&lt;/p&gt;" style="text;html=1;spacing=5;spacingTop=-20;whiteSpace=wrap;overflow=hidden;rounded=0;fillColor=#ffffff;strokeColor=#000000;" parent="K3oOLh2pZVhGYxKfuLFw-45" vertex="1">
          <mxGeometry x="10" y="482.7777777777778" width="430" height="131.66666666666669" as="geometry" />
        </mxCell>
        <mxCell id="K3oOLh2pZVhGYxKfuLFw-44" value="&lt;h1&gt;Raster data&lt;br&gt;&lt;/h1&gt;&lt;p&gt;A grid of regulalry sized pixals with information attached. These may be single or multiband rasters, where there are multiple layers of data atatched. This is a common form of environmental data from global data sets.&lt;br&gt;&lt;/p&gt;" style="text;html=1;spacing=5;spacingTop=-20;whiteSpace=wrap;overflow=hidden;rounded=0;fillColor=#ffffff;strokeColor=#000000;" parent="K3oOLh2pZVhGYxKfuLFw-45" vertex="1">
          <mxGeometry x="10" y="630.9795833333335" width="430" height="131.66666666666669" as="geometry" />
        </mxCell>
        <mxCell id="K3oOLh2pZVhGYxKfuLFw-48" value="" style="verticalLabelPosition=bottom;verticalAlign=top;html=1;strokeWidth=2;shape=mxgraph.arrows2.arrow;dy=0.65;dx=143.32;notch=0;fillColor=#ffffff;rotation=270;direction=south;" parent="Vn1AuMzDJVdrEZINoW1q-0" vertex="1">
          <mxGeometry x="227.5" y="335" width="775" height="225" as="geometry" />
        </mxCell>
        <mxCell id="K3oOLh2pZVhGYxKfuLFw-49" value="Coordinates" style="text;html=1;strokeColor=none;fillColor=none;align=center;verticalAlign=middle;whiteSpace=wrap;rounded=0;fontSize=24;fontStyle=1" parent="Vn1AuMzDJVdrEZINoW1q-0" vertex="1">
          <mxGeometry x="550" y="415" width="110" height="60" as="geometry" />
        </mxCell>
        <mxCell id="Vn1AuMzDJVdrEZINoW1q-6" value="" style="group" vertex="1" connectable="0" parent="WIyWlLk6GJQsqaUBKTNV-1">
          <mxGeometry x="4940" y="-1230" width="1680" height="2320" as="geometry" />
        </mxCell>
        <mxCell id="mfQDYrMZqN6Y804PRQHQ-16" value="" style="rounded=0;whiteSpace=wrap;html=1;strokeColor=#000000;fillColor=#ffffff;" parent="Vn1AuMzDJVdrEZINoW1q-6" vertex="1">
          <mxGeometry x="1110" y="1270" width="420" height="1050" as="geometry" />
        </mxCell>
        <mxCell id="mfQDYrMZqN6Y804PRQHQ-18" style="edgeStyle=orthogonalEdgeStyle;rounded=1;orthogonalLoop=1;jettySize=auto;html=1;entryX=0.5;entryY=0;entryDx=0;entryDy=0;fontSize=24;" parent="Vn1AuMzDJVdrEZINoW1q-6" source="w-YvjRMWvmcFSU0H_ef8-22" target="mfQDYrMZqN6Y804PRQHQ-16" edge="1">
          <mxGeometry as="geometry" />
        </mxCell>
        <mxCell id="w-YvjRMWvmcFSU0H_ef8-22" value="&lt;h1&gt;Ordination&lt;br&gt;&lt;/h1&gt;&lt;p&gt;The calculation and displaying of the relationships of species and sites. Commonly used methods are:&lt;/p&gt;&lt;ul&gt;&lt;li&gt;Principal compoant analysis&lt;/li&gt;&lt;li&gt;Correspondance analysis&lt;/li&gt;&lt;li&gt;Cannonical correspondance analysis&lt;/li&gt;&lt;li&gt;Principal coordinate analysis&lt;/li&gt;&lt;li&gt;non-metric Dimensional Scaling&lt;/li&gt;&lt;/ul&gt;&lt;div&gt;&lt;b&gt;R libraries: stats, vegan, &lt;/b&gt;&lt;b&gt;ade4&lt;/b&gt;&lt;/div&gt;&lt;div&gt;&lt;b&gt;&lt;br&gt;&lt;/b&gt;&lt;/div&gt;" style="text;html=1;spacing=5;spacingTop=-20;whiteSpace=wrap;overflow=hidden;rounded=0;fillColor=#d5e8d4;strokeColor=#82b366;" parent="Vn1AuMzDJVdrEZINoW1q-6" vertex="1">
          <mxGeometry x="370" y="1050" width="340" height="210" as="geometry" />
        </mxCell>
        <mxCell id="kHVZ-IwuB8bhGgUG1t6H-28" style="edgeStyle=orthogonalEdgeStyle;rounded=1;orthogonalLoop=1;jettySize=auto;html=1;entryX=0.5;entryY=0;entryDx=0;entryDy=0;fontSize=24;" parent="Vn1AuMzDJVdrEZINoW1q-6" source="w-YvjRMWvmcFSU0H_ef8-30" target="w-YvjRMWvmcFSU0H_ef8-22" edge="1">
          <mxGeometry as="geometry" />
        </mxCell>
        <mxCell id="w-YvjRMWvmcFSU0H_ef8-30" value="&lt;h1&gt;Classic &lt;span&gt;β &lt;/span&gt;diversity measures and dissimilarities&lt;br&gt;&lt;/h1&gt;&lt;div&gt;There are many measures of &lt;span&gt;β diversity. These include many of the more commonly used dissimilarity measures. There have been several reviews of such measures&lt;/span&gt;&lt;/div&gt;&lt;div&gt;&lt;span&gt;&lt;br&gt;&lt;/span&gt;&lt;/div&gt;&lt;div&gt;&lt;span&gt;&lt;br&gt;&lt;/span&gt;&lt;/div&gt;&lt;div&gt;&lt;span&gt;Some of the most commonly used are:&lt;/span&gt;&lt;/div&gt;&lt;div&gt;&lt;span&gt;&lt;br&gt;&lt;/span&gt;&lt;/div&gt;&lt;div&gt;&lt;span&gt;Jaccard&lt;/span&gt;&lt;/div&gt;&lt;div&gt;&lt;span&gt;Sorrenen&lt;/span&gt;&lt;/div&gt;&lt;div&gt;&lt;span&gt;Bray-Curtis&lt;/span&gt;&lt;/div&gt;&lt;div&gt;&lt;span&gt;Gower&lt;/span&gt;&lt;/div&gt;&lt;div&gt;&lt;span&gt;Hellinger&lt;/span&gt;&lt;/div&gt;&lt;div&gt;&lt;br&gt;&lt;/div&gt;&lt;div&gt;&lt;b&gt;R libraries: Vegan, Betapart, adiv, abdiv, bipartite&lt;/b&gt;&lt;br&gt;&lt;span&gt;&lt;/span&gt;&lt;/div&gt;&lt;div&gt;&lt;span&gt;&lt;/span&gt;&lt;/div&gt;" style="text;html=1;spacing=5;spacingTop=-20;whiteSpace=wrap;overflow=hidden;rounded=0;fillColor=#d5e8d4;strokeColor=#82b366;" parent="Vn1AuMzDJVdrEZINoW1q-6" vertex="1">
          <mxGeometry x="780" y="800" width="407.5" height="300" as="geometry" />
        </mxCell>
        <mxCell id="w-YvjRMWvmcFSU0H_ef8-36" value="&lt;h1&gt;Other measures of diversity (eg Hill Numbers, Diversity Profiles)&lt;br&gt;&lt;/h1&gt;&lt;p&gt;Measures of species richness and diversity are unified in Numbers equivalents first brought to Ecology by Hill (1973) giving rise to Hill Numbers. &lt;br&gt;&lt;/p&gt;&lt;p&gt;&lt;font style=&quot;font-size: 12px&quot;&gt;&lt;br&gt;&lt;/font&gt;&lt;/p&gt;&lt;p&gt;&lt;font style=&quot;font-size: 12px&quot;&gt;Hill Numbers: &lt;b&gt;HillR (&lt;/b&gt;&lt;b&gt;&lt;b&gt;Td, Fd, Pd)&lt;/b&gt;, adiv &lt;/b&gt;&lt;/font&gt;&lt;font style=&quot;font-size: 12px&quot;&gt;&lt;b&gt;&lt;font style=&quot;font-size: 12px&quot;&gt;&lt;b&gt;(&lt;/b&gt;&lt;b&gt;&lt;b&gt;Td, Fd, Pd), iNext&lt;br&gt;&lt;/b&gt;&lt;/b&gt;&lt;/font&gt;&lt;/b&gt;&lt;/font&gt;&lt;/p&gt;&lt;p&gt;&lt;font style=&quot;font-size: 11px&quot;&gt;&lt;sub&gt;&lt;font style=&quot;font-size: 11px&quot;&gt;Tsallis Entropy &lt;/font&gt;: &lt;b style=&quot;font-size: 12px&quot;&gt;Entropart (Td, Fd, Pd), adiv&lt;/b&gt;&lt;/sub&gt;&lt;/font&gt;&lt;font style=&quot;font-size: 11px&quot;&gt;&lt;sub&gt;&lt;b style=&quot;font-size: 12px&quot;&gt;&lt;font style=&quot;font-size: 12px&quot;&gt;&lt;b&gt;(&lt;/b&gt;&lt;b&gt;&lt;b&gt;Td, Fd, Pd)&lt;/b&gt;&lt;/b&gt;&lt;/font&gt;&lt;/b&gt;&lt;/sub&gt;&lt;/font&gt;&lt;/p&gt;&lt;p&gt;&lt;sub&gt;&lt;font style=&quot;font-size: 12px&quot;&gt;Crossing point Theory: &lt;/font&gt;&lt;b style=&quot;font-size: 12px&quot;&gt;&lt;font style=&quot;font-size: 12px&quot;&gt;BioFTF (Td)&lt;/font&gt;&lt;br&gt;&lt;/b&gt;&lt;/sub&gt;&lt;/p&gt;&lt;p&gt;&lt;br&gt;&lt;/p&gt;&lt;p&gt;&lt;br&gt;&lt;/p&gt;&lt;p&gt;&lt;br&gt;&lt;/p&gt;&lt;p&gt;&lt;br&gt;&lt;/p&gt;&lt;p&gt;&lt;br&gt;&lt;/p&gt;" style="text;html=1;spacing=5;spacingTop=-20;whiteSpace=wrap;overflow=hidden;rounded=0;fillColor=#d5e8d4;strokeColor=#82b366;" parent="Vn1AuMzDJVdrEZINoW1q-6" vertex="1">
          <mxGeometry x="60" width="630" height="250" as="geometry" />
        </mxCell>
        <mxCell id="xw4S7eZGQW3ErX5LzovB-23" value="&lt;h1&gt;Dark Diversity&lt;br&gt;&lt;/h1&gt;&lt;p&gt;Number of species not present in a site but within the regional species pool.&lt;/p&gt;&lt;p&gt;&lt;br&gt;&lt;/p&gt;&lt;p&gt;&lt;b&gt;R libraries: Darkdiv&lt;/b&gt;&lt;br&gt;&lt;/p&gt;&lt;p&gt;&lt;br&gt;&lt;/p&gt;&lt;p&gt;&lt;br&gt;&lt;/p&gt;" style="text;html=1;spacing=5;spacingTop=-20;whiteSpace=wrap;overflow=hidden;rounded=0;fillColor=#d5e8d4;strokeColor=#82b366;" parent="Vn1AuMzDJVdrEZINoW1q-6" vertex="1">
          <mxGeometry x="20" y="580" width="280" height="140" as="geometry" />
        </mxCell>
        <mxCell id="K3oOLh2pZVhGYxKfuLFw-10" value="&lt;h1&gt;Classic Measures of&lt;span&gt; α diversity&lt;br&gt;&lt;/span&gt;&lt;/h1&gt;&lt;p&gt;Species Richness&lt;/p&gt;Shannon / Shannon- Weaver index&lt;p&gt;Simpson Index&lt;br&gt;&lt;/p&gt;&lt;p&gt;Inverse Simpson&lt;/p&gt;&lt;p&gt;Gini-Simpson&lt;/p&gt;&lt;p&gt;The above are commonly and widely used measures of&lt;span&gt;&lt;font size=&quot;1&quot;&gt;&lt;span style=&quot;font-weight: normal ; font-size: 12px&quot;&gt; α diversity. There are several more in the &lt;/span&gt;&lt;/font&gt;&lt;/span&gt;&lt;b&gt;R libraries: Vegan (Td),&lt;font style=&quot;font-size: 12px&quot;&gt; adiv &lt;/font&gt;&lt;font style=&quot;font-size: 12px&quot;&gt;&lt;font style=&quot;font-size: 12px&quot;&gt;(Td, Fd, Pd), abdiv,&lt;/font&gt;&lt;/font&gt; bipartite&lt;br&gt;&lt;/b&gt;&lt;/p&gt;" style="text;html=1;spacing=5;spacingTop=-20;whiteSpace=wrap;overflow=hidden;rounded=0;fillColor=#d5e8d4;strokeColor=#82b366;" parent="Vn1AuMzDJVdrEZINoW1q-6" vertex="1">
          <mxGeometry x="795" y="430" width="392.5" height="240" as="geometry" />
        </mxCell>
        <mxCell id="K3oOLh2pZVhGYxKfuLFw-54" value="&lt;h1&gt;Zeta Diversity&lt;br&gt;&lt;/h1&gt;&lt;p&gt;Degree of overlap in the type of taxa present between a set of observed communities.&lt;/p&gt;&lt;p&gt;&lt;br&gt;&lt;/p&gt;&lt;p&gt;&lt;b&gt;R libraries: ZetaDiv &lt;/b&gt;&lt;br&gt;&lt;/p&gt;&lt;p&gt;&lt;br&gt;&lt;/p&gt;&lt;p&gt;&lt;br&gt;&lt;/p&gt;&lt;p&gt;&lt;br&gt;&lt;/p&gt;&lt;p&gt;&lt;br&gt;&lt;/p&gt;" style="text;html=1;spacing=5;spacingTop=-20;whiteSpace=wrap;overflow=hidden;rounded=0;fillColor=#d5e8d4;strokeColor=#82b366;" parent="Vn1AuMzDJVdrEZINoW1q-6" vertex="1">
          <mxGeometry x="20" y="400" width="280" height="140" as="geometry" />
        </mxCell>
        <mxCell id="K3oOLh2pZVhGYxKfuLFw-56" value="&lt;h1&gt;Hypervolumes&lt;br&gt;&lt;/h1&gt;&lt;p&gt;Hutchinsonian niche theory states species live in&amp;nbsp; n-dimensional hypervolumes. It is possible to approximately calculate these hypervolmes statistically.&lt;/p&gt;&lt;p&gt;&lt;br&gt;&lt;/p&gt;&lt;p&gt;&lt;b&gt;R libraries: BAT&lt;/b&gt;&lt;br&gt;&lt;/p&gt;" style="text;html=1;spacing=5;spacingTop=-20;whiteSpace=wrap;overflow=hidden;rounded=0;fillColor=#d5e8d4;strokeColor=#82b366;" parent="Vn1AuMzDJVdrEZINoW1q-6" vertex="1">
          <mxGeometry x="370" y="1350" width="340" height="180" as="geometry" />
        </mxCell>
        <mxCell id="kHVZ-IwuB8bhGgUG1t6H-19" style="edgeStyle=orthogonalEdgeStyle;rounded=1;orthogonalLoop=1;jettySize=auto;html=1;" parent="Vn1AuMzDJVdrEZINoW1q-6" source="w-YvjRMWvmcFSU0H_ef8-22" target="K3oOLh2pZVhGYxKfuLFw-56" edge="1">
          <mxGeometry as="geometry" />
        </mxCell>
        <mxCell id="kHVZ-IwuB8bhGgUG1t6H-20" style="edgeStyle=orthogonalEdgeStyle;rounded=1;orthogonalLoop=1;jettySize=auto;html=1;" parent="Vn1AuMzDJVdrEZINoW1q-6" source="w-YvjRMWvmcFSU0H_ef8-30" target="K3oOLh2pZVhGYxKfuLFw-56" edge="1">
          <mxGeometry as="geometry">
            <Array as="points">
              <mxPoint x="1031" y="1300" />
              <mxPoint x="540" y="1300" />
            </Array>
          </mxGeometry>
        </mxCell>
        <mxCell id="K3oOLh2pZVhGYxKfuLFw-57" value="&lt;h1&gt;eHOF Niche models&lt;br&gt;&lt;/h1&gt;&lt;p&gt;Heirarchical fitting of species-environment logistic models using extended model set of Huisman-Olff-Fresco (HOF) for single gradients.&lt;br&gt;&lt;/p&gt;&lt;p&gt;&lt;b&gt;R libraries: eHOF&lt;/b&gt;&lt;br&gt;&lt;/p&gt;" style="text;html=1;spacing=5;spacingTop=-20;whiteSpace=wrap;overflow=hidden;rounded=0;fillColor=#d5e8d4;strokeColor=#82b366;" parent="Vn1AuMzDJVdrEZINoW1q-6" vertex="1">
          <mxGeometry x="1150" y="2060" width="340" height="150" as="geometry" />
        </mxCell>
        <mxCell id="K3oOLh2pZVhGYxKfuLFw-61" value="&lt;h1&gt;Rarefaction&lt;br&gt;&lt;/h1&gt;&lt;p&gt;Estimates of the unseen species across sites and for individual sites&lt;br&gt;&lt;/p&gt;&lt;p&gt;&lt;br&gt;&lt;/p&gt;&lt;p&gt;&lt;b&gt;R libraries: vegan (Td)&lt;/b&gt;&lt;b&gt;,&lt;/b&gt;&lt;font style=&quot;font-size: 12px&quot;&gt;&lt;b&gt; adiv &lt;/b&gt;&lt;/font&gt;&lt;font style=&quot;font-size: 12px&quot;&gt;&lt;b&gt;&lt;font style=&quot;font-size: 12px&quot;&gt;&lt;b&gt;(&lt;/b&gt;&lt;b&gt;&lt;b&gt;Td, Fd, Pd)&lt;/b&gt;&lt;/b&gt;&lt;/font&gt;&lt;/b&gt;&lt;/font&gt;&lt;/p&gt;&lt;p&gt;&lt;br&gt;&lt;/p&gt;&lt;p&gt;&lt;br&gt;&lt;/p&gt;" style="text;html=1;spacing=5;spacingTop=-20;whiteSpace=wrap;overflow=hidden;rounded=0;fillColor=#d5e8d4;strokeColor=#82b366;" parent="Vn1AuMzDJVdrEZINoW1q-6" vertex="1">
          <mxGeometry x="400" y="640" width="260" height="150" as="geometry" />
        </mxCell>
        <mxCell id="mfQDYrMZqN6Y804PRQHQ-47" style="edgeStyle=orthogonalEdgeStyle;rounded=1;orthogonalLoop=1;jettySize=auto;html=1;fontSize=24;" parent="Vn1AuMzDJVdrEZINoW1q-6" source="K3oOLh2pZVhGYxKfuLFw-10" target="K3oOLh2pZVhGYxKfuLFw-61" edge="1">
          <mxGeometry as="geometry" />
        </mxCell>
        <mxCell id="K3oOLh2pZVhGYxKfuLFw-62" value="&lt;h1&gt;Rank abundance &lt;br&gt;&lt;/h1&gt;&lt;p&gt;Estimates of the unseen species across sites and for individual sites&lt;br&gt;&lt;/p&gt;&lt;p&gt;&lt;br&gt;&lt;/p&gt;&lt;p&gt;&lt;b&gt;R libraries: vegan (Td)&lt;/b&gt;&lt;br&gt;&lt;/p&gt;&lt;p&gt;&lt;br&gt;&lt;/p&gt;&lt;p&gt;&lt;br&gt;&lt;/p&gt;" style="text;html=1;spacing=5;spacingTop=-20;whiteSpace=wrap;overflow=hidden;rounded=0;fillColor=#d5e8d4;strokeColor=#82b366;" parent="Vn1AuMzDJVdrEZINoW1q-6" vertex="1">
          <mxGeometry x="400" y="320" width="260" height="140" as="geometry" />
        </mxCell>
        <mxCell id="mfQDYrMZqN6Y804PRQHQ-45" style="edgeStyle=orthogonalEdgeStyle;rounded=1;orthogonalLoop=1;jettySize=auto;html=1;entryX=1;entryY=0.5;entryDx=0;entryDy=0;fontSize=24;" parent="Vn1AuMzDJVdrEZINoW1q-6" source="K3oOLh2pZVhGYxKfuLFw-10" target="K3oOLh2pZVhGYxKfuLFw-62" edge="1">
          <mxGeometry as="geometry" />
        </mxCell>
        <mxCell id="6e8Cwwr0hj-UMSGpgfXc-8" style="edgeStyle=orthogonalEdgeStyle;rounded=1;orthogonalLoop=1;jettySize=auto;html=1;entryX=1;entryY=0.5;entryDx=0;entryDy=0;fontSize=20;strokeColor=none;" parent="Vn1AuMzDJVdrEZINoW1q-6" source="kHVZ-IwuB8bhGgUG1t6H-12" target="xw4S7eZGQW3ErX5LzovB-23" edge="1">
          <mxGeometry as="geometry" />
        </mxCell>
        <mxCell id="6e8Cwwr0hj-UMSGpgfXc-9" style="edgeStyle=orthogonalEdgeStyle;rounded=1;orthogonalLoop=1;jettySize=auto;html=1;entryX=1;entryY=0.5;entryDx=0;entryDy=0;fontSize=20;" parent="Vn1AuMzDJVdrEZINoW1q-6" source="kHVZ-IwuB8bhGgUG1t6H-12" target="xw4S7eZGQW3ErX5LzovB-23" edge="1">
          <mxGeometry as="geometry" />
        </mxCell>
        <mxCell id="kHVZ-IwuB8bhGgUG1t6H-12" value="&lt;h1&gt;Species Pool&lt;br&gt;&lt;/h1&gt;&lt;p&gt;Estimates of the unseen species across sites and for individual sites&lt;br&gt;&lt;/p&gt;&lt;p&gt;&lt;br&gt;&lt;/p&gt;&lt;p&gt;&lt;b&gt;R libraries: vegan (Td)&lt;/b&gt;&lt;br&gt;&lt;/p&gt;&lt;p&gt;&lt;br&gt;&lt;/p&gt;&lt;p&gt;&lt;br&gt;&lt;/p&gt;" style="text;html=1;spacing=5;spacingTop=-20;whiteSpace=wrap;overflow=hidden;rounded=0;fillColor=#d5e8d4;strokeColor=#82b366;" parent="Vn1AuMzDJVdrEZINoW1q-6" vertex="1">
          <mxGeometry x="400" y="480" width="260" height="140" as="geometry" />
        </mxCell>
        <mxCell id="mfQDYrMZqN6Y804PRQHQ-46" style="edgeStyle=orthogonalEdgeStyle;rounded=1;orthogonalLoop=1;jettySize=auto;html=1;entryX=1;entryY=0.5;entryDx=0;entryDy=0;fontSize=24;" parent="Vn1AuMzDJVdrEZINoW1q-6" source="K3oOLh2pZVhGYxKfuLFw-10" target="kHVZ-IwuB8bhGgUG1t6H-12" edge="1">
          <mxGeometry as="geometry" />
        </mxCell>
        <mxCell id="kHVZ-IwuB8bhGgUG1t6H-15" value="&lt;h1&gt;Correlation of scores&lt;br&gt;&lt;/h1&gt;&lt;p&gt;Correlations of ordination scores and environmental covariates&lt;br&gt;&lt;/p&gt;&lt;p&gt;&lt;b&gt;R libraries: stats, vegan&lt;/b&gt;&lt;br&gt;&lt;/p&gt;" style="text;html=1;spacing=5;spacingTop=-20;whiteSpace=wrap;overflow=hidden;rounded=0;fillColor=#d5e8d4;strokeColor=#82b366;" parent="Vn1AuMzDJVdrEZINoW1q-6" vertex="1">
          <mxGeometry x="1150" y="1390" width="340" height="120" as="geometry" />
        </mxCell>
        <mxCell id="kHVZ-IwuB8bhGgUG1t6H-24" value="&lt;h1&gt;Permanova&lt;br&gt;&lt;/h1&gt;&lt;p&gt;Multivariate permuational analysis of variance &lt;br&gt;&lt;/p&gt;&lt;p&gt;&lt;b&gt;R libraries: Vegan&lt;/b&gt;&lt;br&gt;&lt;/p&gt;" style="text;html=1;spacing=5;spacingTop=-20;whiteSpace=wrap;overflow=hidden;rounded=0;fillColor=#d5e8d4;strokeColor=#82b366;" parent="Vn1AuMzDJVdrEZINoW1q-6" vertex="1">
          <mxGeometry x="1150" y="1790" width="340" height="120" as="geometry" />
        </mxCell>
        <mxCell id="kHVZ-IwuB8bhGgUG1t6H-25" value="&lt;h1&gt;Mantel test&lt;br&gt;&lt;/h1&gt;&lt;p&gt;Correlations of matrices&lt;br&gt;&lt;/p&gt;&lt;p&gt;&lt;b&gt;R libraries: Vegan, ade4&lt;/b&gt;&lt;br&gt;&lt;/p&gt;" style="text;html=1;spacing=5;spacingTop=-20;whiteSpace=wrap;overflow=hidden;rounded=0;fillColor=#d5e8d4;strokeColor=#82b366;" parent="Vn1AuMzDJVdrEZINoW1q-6" vertex="1">
          <mxGeometry x="1150" y="1520" width="340" height="120" as="geometry" />
        </mxCell>
        <mxCell id="kHVZ-IwuB8bhGgUG1t6H-26" value="&lt;h1&gt;Null Model&lt;br&gt;&lt;/h1&gt;&lt;p&gt;Generation of &lt;br&gt;&lt;/p&gt;&lt;p&gt;&lt;b&gt;R libraries: Vegan&lt;/b&gt;&lt;br&gt;&lt;/p&gt;" style="text;html=1;spacing=5;spacingTop=-20;whiteSpace=wrap;overflow=hidden;rounded=0;fillColor=#d5e8d4;strokeColor=#82b366;" parent="Vn1AuMzDJVdrEZINoW1q-6" vertex="1">
          <mxGeometry x="1150" y="1920" width="340" height="120" as="geometry" />
        </mxCell>
        <mxCell id="kHVZ-IwuB8bhGgUG1t6H-27" value="&lt;h1&gt;Analysis of similarity&lt;br&gt;&lt;/h1&gt;&lt;p&gt;Multivariate &lt;br&gt;&lt;/p&gt;&lt;p&gt;&lt;b&gt;R libraries: Vegan&lt;/b&gt;&lt;br&gt;&lt;/p&gt;" style="text;html=1;spacing=5;spacingTop=-20;whiteSpace=wrap;overflow=hidden;rounded=0;fillColor=#d5e8d4;strokeColor=#82b366;" parent="Vn1AuMzDJVdrEZINoW1q-6" vertex="1">
          <mxGeometry x="1150" y="1650" width="340" height="120" as="geometry" />
        </mxCell>
        <mxCell id="tuh5aDSik6XdOIlovmnU-2" style="edgeStyle=orthogonalEdgeStyle;rounded=1;orthogonalLoop=1;jettySize=auto;html=1;entryX=0;entryY=0.5;entryDx=0;entryDy=0;startArrow=classic;startFill=1;" parent="Vn1AuMzDJVdrEZINoW1q-6" source="kHVZ-IwuB8bhGgUG1t6H-33" target="w-YvjRMWvmcFSU0H_ef8-22" edge="1">
          <mxGeometry as="geometry" />
        </mxCell>
        <mxCell id="kHVZ-IwuB8bhGgUG1t6H-33" value="&lt;h1&gt;Clustering&lt;br&gt;&lt;/h1&gt;&lt;p&gt;Grouping of species and samples by proximity. THere are a number of options that include herirachical, non-heirarchical, aglomerative, divisive. Some commonly used methods are.&lt;/p&gt;&lt;ul&gt;&lt;li&gt;UPGMA (average linkage)&lt;/li&gt;&lt;li&gt;TwinsSpan&lt;/li&gt;&lt;li&gt;Diana&lt;/li&gt;&lt;li&gt;K-means&lt;/li&gt;&lt;li&gt;Fuzzy k-means&lt;/li&gt;&lt;/ul&gt;&lt;p&gt;&lt;b&gt;R libraries: Vegan, stats, vegclust, recluster, phylosignal&lt;/b&gt;&lt;/p&gt;&lt;p&gt;&lt;b&gt;None R: Juice, WinTwins&lt;/b&gt;&lt;br&gt;&lt;/p&gt;&lt;p&gt;&lt;br&gt;&lt;/p&gt;&lt;p&gt;&lt;br&gt;&lt;/p&gt;" style="text;html=1;spacing=5;spacingTop=-20;whiteSpace=wrap;overflow=hidden;rounded=0;fillColor=#d5e8d4;strokeColor=#82b366;" parent="Vn1AuMzDJVdrEZINoW1q-6" vertex="1">
          <mxGeometry y="1015" width="260" height="280" as="geometry" />
        </mxCell>
        <mxCell id="tuh5aDSik6XdOIlovmnU-1" style="edgeStyle=orthogonalEdgeStyle;rounded=1;orthogonalLoop=1;jettySize=auto;html=1;entryX=0.5;entryY=0;entryDx=0;entryDy=0;" parent="Vn1AuMzDJVdrEZINoW1q-6" source="w-YvjRMWvmcFSU0H_ef8-30" target="kHVZ-IwuB8bhGgUG1t6H-33" edge="1">
          <mxGeometry as="geometry" />
        </mxCell>
        <mxCell id="jobuWl_KfaXL-yA0P-ZW-6" value="&lt;h1&gt;Trait and abundance data: Fourth corner analyses&lt;br&gt;&lt;/h1&gt;&lt;p&gt;Using models of species abundance/presence absence and measured traits to establish the relationship of traits to the environment &lt;br&gt;&lt;/p&gt;&lt;p&gt;&lt;b&gt;R libraries: ade4 FD&lt;/b&gt;&lt;br&gt;&lt;/p&gt;" style="text;html=1;spacing=5;spacingTop=-20;whiteSpace=wrap;overflow=hidden;rounded=0;fillColor=#d5e8d4;strokeColor=#82b366;" parent="Vn1AuMzDJVdrEZINoW1q-6" vertex="1">
          <mxGeometry x="742.5" y="1350" width="340" height="180" as="geometry" />
        </mxCell>
        <mxCell id="mfQDYrMZqN6Y804PRQHQ-19" style="edgeStyle=orthogonalEdgeStyle;rounded=1;orthogonalLoop=1;jettySize=auto;html=1;fontSize=24;" parent="Vn1AuMzDJVdrEZINoW1q-6" source="w-YvjRMWvmcFSU0H_ef8-22" target="jobuWl_KfaXL-yA0P-ZW-6" edge="1">
          <mxGeometry as="geometry" />
        </mxCell>
        <mxCell id="mfQDYrMZqN6Y804PRQHQ-12" style="edgeStyle=orthogonalEdgeStyle;rounded=1;orthogonalLoop=1;jettySize=auto;html=1;entryX=1;entryY=0.5;entryDx=0;entryDy=0;" parent="Vn1AuMzDJVdrEZINoW1q-6" source="mfQDYrMZqN6Y804PRQHQ-11" target="K3oOLh2pZVhGYxKfuLFw-10" edge="1">
          <mxGeometry as="geometry">
            <Array as="points">
              <mxPoint x="1515" y="538" />
            </Array>
          </mxGeometry>
        </mxCell>
        <mxCell id="mfQDYrMZqN6Y804PRQHQ-13" style="edgeStyle=orthogonalEdgeStyle;rounded=1;orthogonalLoop=1;jettySize=auto;html=1;entryX=1;entryY=0.5;entryDx=0;entryDy=0;" parent="Vn1AuMzDJVdrEZINoW1q-6" source="mfQDYrMZqN6Y804PRQHQ-11" target="w-YvjRMWvmcFSU0H_ef8-30" edge="1">
          <mxGeometry as="geometry" />
        </mxCell>
        <mxCell id="mfQDYrMZqN6Y804PRQHQ-48" style="edgeStyle=orthogonalEdgeStyle;rounded=1;orthogonalLoop=1;jettySize=auto;html=1;entryX=1;entryY=0.5;entryDx=0;entryDy=0;fontSize=24;" parent="Vn1AuMzDJVdrEZINoW1q-6" source="mfQDYrMZqN6Y804PRQHQ-11" target="w-YvjRMWvmcFSU0H_ef8-36" edge="1">
          <mxGeometry as="geometry">
            <Array as="points">
              <mxPoint x="1515" y="340" />
              <mxPoint x="1000" y="340" />
              <mxPoint x="1000" y="125" />
            </Array>
          </mxGeometry>
        </mxCell>
        <mxCell id="mfQDYrMZqN6Y804PRQHQ-11" value="Are your data in an appropriate format ? Most diversity analyssi tools require data to be in wide format with separate dataframes, arrays or matrices for biodiversity, genetic, functional and environmental covariates. See conversion page." style="rhombus;whiteSpace=wrap;html=1;strokeColor=#000000;fillColor=#ffffff;" parent="Vn1AuMzDJVdrEZINoW1q-6" vertex="1">
          <mxGeometry x="1350" y="910" width="330" height="300" as="geometry" />
        </mxCell>
        <mxCell id="mfQDYrMZqN6Y804PRQHQ-17" value="Responses to the covariates (eg environment)" style="text;html=1;strokeColor=none;fillColor=none;align=center;verticalAlign=middle;whiteSpace=wrap;rounded=0;fontStyle=1;fontSize=24;" parent="Vn1AuMzDJVdrEZINoW1q-6" vertex="1">
          <mxGeometry x="1130" y="1290" width="330" height="50" as="geometry" />
        </mxCell>
        <mxCell id="6e8Cwwr0hj-UMSGpgfXc-15" value="&lt;div&gt;&lt;font style=&quot;font-size: 24px&quot;&gt;&lt;b&gt;Ecological Network analysis&lt;/b&gt;&lt;br&gt;&lt;/font&gt;&lt;/div&gt;&lt;div&gt;&lt;br&gt;&lt;/div&gt;&lt;div align=&quot;left&quot;&gt;This type of analysis uses multiple libraries To analyse the interactions of multiple species. A useful review is a available in https://doi.org/10.1111/brv.12433&lt;/div&gt;&lt;div align=&quot;left&quot;&gt;&lt;br&gt;&lt;/div&gt;&lt;div align=&quot;left&quot;&gt;Useful &lt;b&gt;R libraries: Vegan, bitpartite&lt;/b&gt;&lt;br&gt;&lt;/div&gt;&lt;div align=&quot;left&quot;&gt;&lt;br&gt;&lt;/div&gt;" style="rounded=0;whiteSpace=wrap;html=1;strokeColor=#82b366;fillColor=#d5e8d4;verticalAlign=top;" parent="Vn1AuMzDJVdrEZINoW1q-6" vertex="1">
          <mxGeometry x="20" y="732.5" width="280" height="170" as="geometry" />
        </mxCell>
        <mxCell id="6e8Cwwr0hj-UMSGpgfXc-16" style="edgeStyle=orthogonalEdgeStyle;rounded=1;orthogonalLoop=1;jettySize=auto;html=1;entryX=1;entryY=0.5;entryDx=0;entryDy=0;fontSize=20;" parent="Vn1AuMzDJVdrEZINoW1q-6" source="w-YvjRMWvmcFSU0H_ef8-30" target="6e8Cwwr0hj-UMSGpgfXc-15" edge="1">
          <mxGeometry as="geometry" />
        </mxCell>
        <mxCell id="6e8Cwwr0hj-UMSGpgfXc-17" style="edgeStyle=orthogonalEdgeStyle;rounded=1;orthogonalLoop=1;jettySize=auto;html=1;entryX=1;entryY=0.5;entryDx=0;entryDy=0;fontSize=20;" parent="Vn1AuMzDJVdrEZINoW1q-6" source="K3oOLh2pZVhGYxKfuLFw-10" target="6e8Cwwr0hj-UMSGpgfXc-15" edge="1">
          <mxGeometry as="geometry">
            <Array as="points">
              <mxPoint x="730" y="550" />
              <mxPoint x="730" y="818" />
            </Array>
          </mxGeometry>
        </mxCell>
        <mxCell id="mfQDYrMZqN6Y804PRQHQ-44" style="edgeStyle=orthogonalEdgeStyle;rounded=1;orthogonalLoop=1;jettySize=auto;html=1;entryX=0.5;entryY=0;entryDx=0;entryDy=0;fontSize=24;" parent="WIyWlLk6GJQsqaUBKTNV-1" source="xw4S7eZGQW3ErX5LzovB-55" target="mfQDYrMZqN6Y804PRQHQ-42" edge="1">
          <mxGeometry x="3980" y="2560" as="geometry" />
        </mxCell>
        <mxCell id="Vn1AuMzDJVdrEZINoW1q-11" value="" style="group" vertex="1" connectable="0" parent="WIyWlLk6GJQsqaUBKTNV-1">
          <mxGeometry x="10360" y="910" width="710" height="910" as="geometry" />
        </mxCell>
        <mxCell id="mfQDYrMZqN6Y804PRQHQ-42" value="" style="rounded=0;whiteSpace=wrap;html=1;strokeColor=#000000;fillColor=#ffffff;fontSize=24;" parent="Vn1AuMzDJVdrEZINoW1q-11" vertex="1">
          <mxGeometry width="710" height="910" as="geometry" />
        </mxCell>
        <mxCell id="Vn1AuMzDJVdrEZINoW1q-10" value="" style="group" vertex="1" connectable="0" parent="Vn1AuMzDJVdrEZINoW1q-11">
          <mxGeometry x="10" y="10" width="650" height="885" as="geometry" />
        </mxCell>
        <mxCell id="nuO9TFtqxaYfnLADoFkb-0" value="&lt;h1&gt;Spatially Thin&lt;br&gt;&lt;/h1&gt;&lt;p&gt;Randomly reduces the number of records in a data set to a minimum distance between them&lt;/p&gt;&lt;p&gt;&lt;b&gt;R library: spThin&lt;/b&gt;&lt;br&gt;&lt;/p&gt;" style="text;html=1;spacing=5;spacingTop=-20;whiteSpace=wrap;overflow=hidden;rounded=0;fillColor=#ffffff;strokeColor=#000000;" parent="Vn1AuMzDJVdrEZINoW1q-10" vertex="1">
          <mxGeometry x="340" y="180" width="310" height="120" as="geometry" />
        </mxCell>
        <mxCell id="hmOcISKYs5yDdYKpSmGY-40" value="" style="group" parent="Vn1AuMzDJVdrEZINoW1q-10" vertex="1" connectable="0">
          <mxGeometry y="40" width="310" height="360" as="geometry" />
        </mxCell>
        <mxCell id="hmOcISKYs5yDdYKpSmGY-31" value="&lt;h1&gt;Metrics of oberservers&lt;br&gt;&lt;/h1&gt;&lt;p&gt;&lt;br&gt;&lt;/p&gt;" style="text;html=1;spacing=5;spacingTop=-20;whiteSpace=wrap;overflow=hidden;rounded=0;fillColor=#ffffff;strokeColor=#000000;" parent="hmOcISKYs5yDdYKpSmGY-40" vertex="1">
          <mxGeometry width="310" height="360" as="geometry" />
        </mxCell>
        <mxCell id="hmOcISKYs5yDdYKpSmGY-37" value="&lt;h1 style=&quot;font-size: 14px&quot;&gt;recorderMetrics&lt;/h1&gt;&lt;p style=&quot;font-size: 12px&quot;&gt;The behaviour of observers can be quantified August et al (2020) &lt;br&gt;describe several methods (https://doi.org/10.1038/S41598-020-67658-3). &lt;br&gt;This is linked to a github repository for recorderMetrics&lt;/p&gt;&lt;p style=&quot;font-size: 12px&quot;&gt;&lt;b&gt;R library: recorderMetrics&lt;/b&gt;&lt;/p&gt;" style="text;html=1;spacing=5;spacingTop=-20;whiteSpace=wrap;overflow=hidden;rounded=0;fillColor=#ffffff;strokeColor=#000000;fontSize=14;align=left;" parent="hmOcISKYs5yDdYKpSmGY-40" vertex="1">
          <mxGeometry x="19" y="60" width="271" height="150" as="geometry" />
        </mxCell>
        <mxCell id="hmOcISKYs5yDdYKpSmGY-38" value="&lt;h1 style=&quot;font-size: 14px&quot;&gt;BIRDS&lt;/h1&gt;&lt;p style=&quot;font-size: 12px&quot;&gt;The &lt;b&gt;R library BIRDS &lt;/b&gt;provides methods to quantify visitation effort as well as ignorance scores for a species groups. &lt;br&gt;&lt;/p&gt;&lt;p style=&quot;font-size: 12px&quot;&gt;&lt;b&gt;R library: BIRDS&lt;/b&gt;&lt;/p&gt;&lt;p style=&quot;font-size: 12px&quot;&gt;&lt;b&gt;&lt;br&gt;&lt;/b&gt;&lt;/p&gt;&lt;p style=&quot;font-size: 12px&quot;&gt;&lt;b&gt; &lt;/b&gt;&lt;br&gt;&lt;/p&gt;" style="text;html=1;spacing=5;spacingTop=-20;whiteSpace=wrap;overflow=hidden;rounded=0;fillColor=#ffffff;strokeColor=#000000;fontSize=14;align=left;" parent="hmOcISKYs5yDdYKpSmGY-40" vertex="1">
          <mxGeometry x="19" y="235" width="271" height="105" as="geometry" />
        </mxCell>
        <mxCell id="hmOcISKYs5yDdYKpSmGY-42" value="" style="group" parent="Vn1AuMzDJVdrEZINoW1q-10" vertex="1" connectable="0">
          <mxGeometry y="415" width="310" height="470" as="geometry" />
        </mxCell>
        <mxCell id="hmOcISKYs5yDdYKpSmGY-43" value="&lt;h1&gt;Bias from samples&lt;/h1&gt;&lt;div&gt;Bias can be explicitly described looking at where the presences are more likely occur. The simplest version parameterises where presence records occur and therefore where has most likely been searched. It can also be explicitly modelled using accessibilty covariates such as roads &lt;br&gt;&lt;/div&gt;" style="text;html=1;spacing=5;spacingTop=-20;whiteSpace=wrap;overflow=hidden;rounded=0;fillColor=#ffffff;strokeColor=#000000;" parent="hmOcISKYs5yDdYKpSmGY-42" vertex="1">
          <mxGeometry width="310" height="470" as="geometry" />
        </mxCell>
        <mxCell id="hmOcISKYs5yDdYKpSmGY-44" value="&lt;h1 style=&quot;font-size: 14px&quot;&gt;Kernal estimation&lt;br&gt;&lt;/h1&gt;&lt;p style=&quot;font-size: 12px&quot;&gt;kernal estimation takes records of all similarly recorded organisms and creates a 2d surface showing where most records come from. Such a surface can be used to select back ground points with similar biases (Phillips et al 2009)&lt;br&gt;&lt;/p&gt;&lt;p style=&quot;font-size: 12px&quot;&gt;&lt;b&gt;R library: MASS &lt;br&gt;&lt;/b&gt;&lt;/p&gt;" style="text;html=1;spacing=5;spacingTop=-20;whiteSpace=wrap;overflow=hidden;rounded=0;fillColor=#ffffff;strokeColor=#000000;fontSize=14;align=left;" parent="hmOcISKYs5yDdYKpSmGY-42" vertex="1">
          <mxGeometry x="19.5" y="170" width="271" height="150" as="geometry" />
        </mxCell>
        <mxCell id="hmOcISKYs5yDdYKpSmGY-45" value="&lt;h1 style=&quot;font-size: 14px&quot;&gt;Sampbias&lt;/h1&gt;&lt;p style=&quot;font-size: 12px&quot;&gt;Explicitly modelling biodiversity records with landscape accessibility covariates (eg roads) using bayesian statisitcs. &lt;br&gt;&lt;/p&gt;&lt;p style=&quot;font-size: 12px&quot;&gt;&lt;b&gt;R library: sampBias&lt;/b&gt;&lt;/p&gt;&lt;p style=&quot;font-size: 12px&quot;&gt;&lt;b&gt;&lt;br&gt;&lt;/b&gt;&lt;/p&gt;&lt;p style=&quot;font-size: 12px&quot;&gt;&lt;b&gt; &lt;/b&gt;&lt;br&gt;&lt;/p&gt;" style="text;html=1;spacing=5;spacingTop=-20;whiteSpace=wrap;overflow=hidden;rounded=0;fillColor=#ffffff;strokeColor=#000000;fontSize=14;align=left;" parent="hmOcISKYs5yDdYKpSmGY-42" vertex="1">
          <mxGeometry x="19.5" y="345" width="271" height="105" as="geometry" />
        </mxCell>
        <mxCell id="hmOcISKYs5yDdYKpSmGY-46" value="&lt;h1&gt;Tuning Model settings&lt;br&gt;&lt;/h1&gt;&lt;div&gt;Changing model settings can affect the outputs in not insignificant ways. This is particularly true in machine learning algorithims such as MaxEnt&lt;/div&gt;&lt;div&gt;http://doi.wiley.com/10.1111/j.1600-0587.2013.07872.x&lt;br&gt;&lt;/div&gt;" style="text;html=1;spacing=5;spacingTop=-20;whiteSpace=wrap;overflow=hidden;rounded=0;fillColor=#ffffff;strokeColor=#000000;" parent="Vn1AuMzDJVdrEZINoW1q-10" vertex="1">
          <mxGeometry x="340" y="40" width="310" height="110" as="geometry" />
        </mxCell>
        <mxCell id="mfQDYrMZqN6Y804PRQHQ-43" value="&lt;b&gt;Methods to account for bias&lt;br&gt;&lt;/b&gt;" style="text;html=1;strokeColor=none;fillColor=none;align=left;verticalAlign=middle;whiteSpace=wrap;rounded=0;fontSize=24;" parent="Vn1AuMzDJVdrEZINoW1q-10" vertex="1">
          <mxGeometry x="10" width="490" height="20" as="geometry" />
        </mxCell>
        <mxCell id="Vn1AuMzDJVdrEZINoW1q-12" value="" style="group" vertex="1" connectable="0" parent="WIyWlLk6GJQsqaUBKTNV-1">
          <mxGeometry x="5010" y="2830" width="2390" height="1290" as="geometry" />
        </mxCell>
        <mxCell id="6e8Cwwr0hj-UMSGpgfXc-23" value="&lt;h1&gt;SDM libraries and software&lt;br&gt;&lt;/h1&gt;&lt;div&gt;There are many available resources for species distribution modelling includeing:&lt;/div&gt;&lt;div&gt;&lt;br&gt;&lt;/div&gt;&lt;div&gt;&lt;b&gt;R library: Dismo, ENMeval,sdm, biomod2, jSDM, brt&lt;br&gt;&lt;/b&gt;&lt;/div&gt;&lt;div&gt;&lt;b&gt;&lt;br&gt;&lt;/b&gt;&lt;/div&gt;&lt;div&gt;&lt;b&gt;Non R: maxent, SDM toolbox&lt;/b&gt;&lt;br&gt;&lt;/div&gt;" style="text;html=1;spacing=5;spacingTop=-20;whiteSpace=wrap;overflow=hidden;rounded=0;fontSize=20;fillColor=#ffffff;strokeColor=#000000;" parent="Vn1AuMzDJVdrEZINoW1q-12" vertex="1">
          <mxGeometry x="862.5" y="620" width="545" height="270" as="geometry" />
        </mxCell>
        <mxCell id="Vn1AuMzDJVdrEZINoW1q-3" value="" style="group" vertex="1" connectable="0" parent="Vn1AuMzDJVdrEZINoW1q-12">
          <mxGeometry x="1790" y="270" width="600" height="1020" as="geometry" />
        </mxCell>
        <mxCell id="mfQDYrMZqN6Y804PRQHQ-71" value="" style="rounded=0;whiteSpace=wrap;html=1;strokeColor=#000000;fillColor=#ffffff;fontSize=24;align=left;" parent="Vn1AuMzDJVdrEZINoW1q-3" vertex="1">
          <mxGeometry width="600" height="1020" as="geometry" />
        </mxCell>
        <mxCell id="xw4S7eZGQW3ErX5LzovB-30" value="&lt;h1&gt;Boosted regression trees (BRT)&lt;br&gt;&lt;/h1&gt;&lt;p&gt;Lorem ipsum dolor sit amet, consectetur adipisicing elit, sed do eiusmod tempor incididunt ut labore et dolore magna aliqua.&lt;/p&gt;" style="text;html=1;spacing=5;spacingTop=-20;whiteSpace=wrap;overflow=hidden;rounded=0;fillColor=#ffffff;strokeColor=#000000;" parent="Vn1AuMzDJVdrEZINoW1q-3" vertex="1">
          <mxGeometry x="142.5" y="220.65999999999985" width="410" height="100" as="geometry" />
        </mxCell>
        <mxCell id="xw4S7eZGQW3ErX5LzovB-31" value="&lt;h1&gt;Maximm Entropy (MaxEnt)&lt;br&gt;&lt;/h1&gt;&lt;p&gt;&lt;b&gt;R library: Dismo&lt;br&gt;&lt;/b&gt;&lt;/p&gt;" style="text;html=1;spacing=5;spacingTop=-20;whiteSpace=wrap;overflow=hidden;rounded=0;fillColor=#ffffff;strokeColor=#000000;" parent="Vn1AuMzDJVdrEZINoW1q-3" vertex="1">
          <mxGeometry x="140" y="340.65999999999985" width="410" height="100" as="geometry" />
        </mxCell>
        <mxCell id="xw4S7eZGQW3ErX5LzovB-32" value="&lt;h1&gt;GLM / GAM&lt;br&gt;&lt;/h1&gt;&lt;p&gt;&lt;br&gt;&lt;/p&gt;" style="text;html=1;spacing=5;spacingTop=-20;whiteSpace=wrap;overflow=hidden;rounded=0;fillColor=#ffffff;strokeColor=#000000;" parent="Vn1AuMzDJVdrEZINoW1q-3" vertex="1">
          <mxGeometry x="142.5" y="470.65999999999985" width="410" height="100" as="geometry" />
        </mxCell>
        <mxCell id="kHVZ-IwuB8bhGgUG1t6H-13" value="&lt;h1&gt;Occupancy modelling&lt;br&gt;&lt;/h1&gt;&lt;p&gt;Bayesian inference of species presences from repeat visits&amp;nbsp;&lt;/p&gt;&lt;p&gt;&lt;br&gt;&lt;/p&gt;&lt;p&gt;&lt;b&gt;R library: MCMCglmmm, blmeco&lt;/b&gt;&lt;br&gt;&lt;/p&gt;" style="text;html=1;spacing=5;spacingTop=-20;whiteSpace=wrap;overflow=hidden;rounded=0;fillColor=#ffffff;strokeColor=#000000;" parent="Vn1AuMzDJVdrEZINoW1q-3" vertex="1">
          <mxGeometry x="152.5" y="580" width="405" height="180" as="geometry" />
        </mxCell>
        <mxCell id="sg-I6Dr9140E_a6tFQ04-3" value="&lt;h1&gt;Joint species distribution modelling&lt;/h1&gt;&lt;div&gt;Analysis of species distributions from environmental covariates AND species correlations.&lt;/div&gt;&lt;div&gt;&lt;br&gt;&lt;/div&gt;&lt;div&gt;&lt;b&gt;R library: jSDM&lt;/b&gt;&lt;br&gt;&lt;/div&gt;&lt;p&gt;&lt;br&gt;&lt;/p&gt;" style="text;html=1;spacing=5;spacingTop=-20;whiteSpace=wrap;overflow=hidden;rounded=0;fillColor=#ffffff;strokeColor=#000000;" parent="Vn1AuMzDJVdrEZINoW1q-3" vertex="1">
          <mxGeometry x="152.5" y="790" width="405" height="160" as="geometry" />
        </mxCell>
        <mxCell id="mfQDYrMZqN6Y804PRQHQ-73" value="&lt;h1 style=&quot;font-size: 24px&quot;&gt;SDM/ENM Types&lt;br&gt;&lt;/h1&gt;&lt;p style=&quot;font-size: 24px&quot;&gt;Ecological niche models are a large subject area. Here we list some of the main types. It is possible to &lt;br&gt;&lt;/p&gt;" style="text;html=1;strokeColor=none;fillColor=none;spacing=5;spacingTop=-20;whiteSpace=wrap;overflow=hidden;rounded=0;fontSize=24;align=left;" parent="Vn1AuMzDJVdrEZINoW1q-3" vertex="1">
          <mxGeometry x="40" y="0.6599999999998545" width="530" height="210" as="geometry" />
        </mxCell>
        <mxCell id="6e8Cwwr0hj-UMSGpgfXc-27" style="edgeStyle=orthogonalEdgeStyle;rounded=1;orthogonalLoop=1;jettySize=auto;html=1;fontSize=20;" parent="Vn1AuMzDJVdrEZINoW1q-12" source="6e8Cwwr0hj-UMSGpgfXc-23" target="mfQDYrMZqN6Y804PRQHQ-71" edge="1">
          <mxGeometry relative="1" as="geometry" />
        </mxCell>
        <mxCell id="K3oOLh2pZVhGYxKfuLFw-37" value="&lt;h1&gt;Morans Eigenvector maps&lt;br&gt;&lt;/h1&gt;&lt;p&gt;These combine spatially explicit modelling of multivariate data&lt;/p&gt;&lt;p&gt;&lt;br&gt;&lt;/p&gt;&lt;p&gt;&lt;br&gt;&lt;/p&gt;&lt;p&gt;&lt;b&gt;R libraries: adespatial, spmoran&lt;/b&gt;&lt;br&gt;&lt;/p&gt;" style="text;html=1;spacing=5;spacingTop=-20;whiteSpace=wrap;overflow=hidden;rounded=0;fillColor=#ffffff;strokeColor=#000000;" parent="Vn1AuMzDJVdrEZINoW1q-12" vertex="1">
          <mxGeometry x="49.5" y="1110" width="345.5" height="170" as="geometry" />
        </mxCell>
        <mxCell id="w-YvjRMWvmcFSU0H_ef8-31" value="&lt;h1&gt;Species Distribution Modelling or Ecological Niche Modelling&lt;br&gt;&lt;/h1&gt;Correlative modelling of species presences and environmental variables" style="text;html=1;spacing=5;spacingTop=-20;whiteSpace=wrap;overflow=hidden;rounded=0;fillColor=#fff2cc;strokeColor=#d6b656;" parent="Vn1AuMzDJVdrEZINoW1q-12" vertex="1">
          <mxGeometry x="100" width="490" height="150" as="geometry" />
        </mxCell>
        <mxCell id="K3oOLh2pZVhGYxKfuLFw-40" value="&lt;h1&gt;Variograms&lt;br&gt;&lt;/h1&gt;&lt;p&gt;Spatially explicit models of variation in measured variables&lt;/p&gt;&lt;p&gt;&lt;b&gt;R Libraries: gstat&lt;/b&gt;&lt;br&gt;&lt;/p&gt;" style="text;html=1;spacing=5;spacingTop=-20;whiteSpace=wrap;overflow=hidden;rounded=0;fillColor=#ffffff;strokeColor=#000000;" parent="Vn1AuMzDJVdrEZINoW1q-12" vertex="1">
          <mxGeometry y="760" width="390" height="110" as="geometry" />
        </mxCell>
        <mxCell id="l_WFNnPwY0MCgCIW6E0b-39" value="" style="edgeStyle=orthogonalEdgeStyle;rounded=1;jumpStyle=arc;orthogonalLoop=1;jettySize=auto;html=1;" parent="Vn1AuMzDJVdrEZINoW1q-12" source="K3oOLh2pZVhGYxKfuLFw-41" target="K3oOLh2pZVhGYxKfuLFw-40" edge="1">
          <mxGeometry as="geometry" />
        </mxCell>
        <mxCell id="K3oOLh2pZVhGYxKfuLFw-41" value="&lt;h1&gt;Spatial interpolation &lt;br&gt;&lt;/h1&gt;&lt;p&gt;Spatial interpolation takes a set of points with data attached to them and projects the likely values of that data over a space.&amp;nbsp; There are a number of methods:&lt;/p&gt;&lt;p&gt;&lt;br&gt;&lt;/p&gt;&lt;p&gt;&lt;b&gt;R Libraries: gstat,&lt;/b&gt;&lt;br&gt;&lt;/p&gt;" style="text;html=1;spacing=5;spacingTop=-20;whiteSpace=wrap;overflow=hidden;rounded=0;fillColor=#ffffff;strokeColor=#000000;" parent="Vn1AuMzDJVdrEZINoW1q-12" vertex="1">
          <mxGeometry x="30" y="460" width="330" height="180" as="geometry" />
        </mxCell>
        <mxCell id="mfQDYrMZqN6Y804PRQHQ-74" style="edgeStyle=orthogonalEdgeStyle;rounded=1;orthogonalLoop=1;jettySize=auto;html=1;entryX=0.5;entryY=0;entryDx=0;entryDy=0;fontSize=24;" parent="Vn1AuMzDJVdrEZINoW1q-12" source="mfQDYrMZqN6Y804PRQHQ-54" target="K3oOLh2pZVhGYxKfuLFw-41" edge="1">
          <mxGeometry as="geometry">
            <mxPoint x="344.9999999999991" y="470" as="targetPoint" />
          </mxGeometry>
        </mxCell>
        <mxCell id="mfQDYrMZqN6Y804PRQHQ-54" value="&lt;h1&gt;Spatial plotting&amp;nbsp; of biodiversity data&lt;br&gt;&lt;/h1&gt;&lt;div&gt;Distribution of species presences and/or mapping of biodiversity values&lt;/div&gt;&lt;div&gt;&lt;br&gt;&lt;/div&gt;&lt;div&gt;&lt;br&gt;&lt;/div&gt;&lt;div&gt;&lt;b&gt;R Libraries: Sf, Sp, Raster&lt;/b&gt;&lt;/div&gt;&lt;div&gt;&lt;br&gt;&lt;/div&gt;&lt;div&gt;&lt;b&gt;Non-R: QGIS, Esri ARCmap&lt;/b&gt;&lt;br&gt;&lt;/div&gt;" style="text;html=1;spacing=5;spacingTop=-20;whiteSpace=wrap;overflow=hidden;rounded=0;fillColor=#ffffff;strokeColor=#000000;" parent="Vn1AuMzDJVdrEZINoW1q-12" vertex="1">
          <mxGeometry x="100" y="185" width="490" height="185" as="geometry" />
        </mxCell>
        <mxCell id="6e8Cwwr0hj-UMSGpgfXc-25" value="&lt;h1&gt;Spatial point pattern analysis&lt;br&gt;&lt;/h1&gt;&lt;p&gt;Analysis of the pattern of spatial points with covariates&lt;/p&gt;&lt;p&gt;&lt;br&gt;&lt;/p&gt;&lt;p&gt;&lt;b&gt;R library: spastat&lt;/b&gt;&lt;br&gt;&lt;/p&gt;&lt;p&gt;&lt;br&gt;&lt;/p&gt;" style="text;html=1;spacing=5;spacingTop=-20;whiteSpace=wrap;overflow=hidden;rounded=0;fillColor=#ffffff;strokeColor=#000000;" parent="Vn1AuMzDJVdrEZINoW1q-12" vertex="1">
          <mxGeometry x="395" y="600" width="350" height="160" as="geometry" />
        </mxCell>
        <mxCell id="6e8Cwwr0hj-UMSGpgfXc-26" style="edgeStyle=orthogonalEdgeStyle;rounded=1;orthogonalLoop=1;jettySize=auto;html=1;entryX=0.5;entryY=0;entryDx=0;entryDy=0;fontSize=20;" parent="Vn1AuMzDJVdrEZINoW1q-12" source="mfQDYrMZqN6Y804PRQHQ-54" target="6e8Cwwr0hj-UMSGpgfXc-25" edge="1">
          <mxGeometry as="geometry">
            <Array as="points">
              <mxPoint x="345" y="420" />
              <mxPoint x="570" y="420" />
            </Array>
          </mxGeometry>
        </mxCell>
        <mxCell id="Vn1AuMzDJVdrEZINoW1q-7" value="" style="group" vertex="1" connectable="0" parent="Vn1AuMzDJVdrEZINoW1q-12">
          <mxGeometry x="400" y="-1450" width="780" height="950" as="geometry" />
        </mxCell>
        <mxCell id="kHVZ-IwuB8bhGgUG1t6H-31" style="edgeStyle=orthogonalEdgeStyle;rounded=1;orthogonalLoop=1;jettySize=auto;html=1;exitX=0.5;exitY=1;exitDx=0;exitDy=0;fontSize=24;" parent="Vn1AuMzDJVdrEZINoW1q-7" edge="1">
          <mxGeometry relative="1" as="geometry">
            <mxPoint x="97" y="370" as="sourcePoint" />
            <mxPoint x="97" y="370" as="targetPoint" />
          </mxGeometry>
        </mxCell>
        <mxCell id="nuO9TFtqxaYfnLADoFkb-13" value="It is important to remember the assumptions, caveats and limitations of statisitical tools prior to using them. " style="rounded=0;whiteSpace=wrap;html=1;" parent="Vn1AuMzDJVdrEZINoW1q-7" vertex="1">
          <mxGeometry width="180" height="330" as="geometry" />
        </mxCell>
        <mxCell id="nuO9TFtqxaYfnLADoFkb-15" value="&lt;h1&gt;Regression: GLMs,&amp;nbsp; GAMs, etc.&lt;br&gt;&lt;/h1&gt;&lt;p&gt;Fits linnear relationships between predicotrs and a response variable. We include geenral and generalised linnear modelling&lt;/p&gt;&lt;p&gt;&lt;b&gt;R library: stats, gam, &lt;/b&gt;&lt;br&gt;&lt;/p&gt;&lt;p&gt; &lt;br&gt;&lt;/p&gt;" style="text;html=1;spacing=5;spacingTop=-20;whiteSpace=wrap;overflow=hidden;rounded=0;fillColor=#ffffff;strokeColor=#000000;" parent="Vn1AuMzDJVdrEZINoW1q-7" vertex="1">
          <mxGeometry x="213.76" width="256.24" height="180" as="geometry" />
        </mxCell>
        <mxCell id="nuO9TFtqxaYfnLADoFkb-16" value="&lt;h1&gt;Mixed effects Models&lt;/h1&gt;&lt;div&gt;Regression models with the addition of Random effects. Such models can used to explain sources of uncontrolled variance. &lt;br&gt;&lt;/div&gt;&lt;div&gt;&lt;br&gt;&lt;/div&gt;&lt;div&gt;&lt;b&gt;R libraries: lmer, lme4, lmertest&lt;/b&gt;&lt;br&gt;&lt;/div&gt;" style="text;html=1;spacing=5;spacingTop=-20;whiteSpace=wrap;overflow=hidden;rounded=0;fillColor=#ffffff;strokeColor=#000000;" parent="Vn1AuMzDJVdrEZINoW1q-7" vertex="1">
          <mxGeometry x="498" width="245" height="180" as="geometry" />
        </mxCell>
        <mxCell id="jobuWl_KfaXL-yA0P-ZW-0" value="&lt;h1&gt;Bayesian modelling&lt;br&gt;&lt;/h1&gt;&lt;p&gt;Bayesian modelling inference &lt;br&gt;&lt;/p&gt;&lt;p&gt;&lt;b&gt;R libraries: greta, MCMCglmm, rethinking&lt;/b&gt;&lt;br&gt;&lt;/p&gt;" style="text;html=1;spacing=5;spacingTop=-20;whiteSpace=wrap;overflow=hidden;rounded=0;fillColor=#ffffff;strokeColor=#000000;" parent="Vn1AuMzDJVdrEZINoW1q-7" vertex="1">
          <mxGeometry x="213.76" y="210" width="260" height="120" as="geometry" />
        </mxCell>
        <mxCell id="jobuWl_KfaXL-yA0P-ZW-1" value="&lt;h1&gt;Permuational Statistics&lt;br&gt;&lt;/h1&gt;&lt;p&gt;A family of statistics that randomly&amp;nbsp; rearranges data tp establish relationships&lt;br&gt;&lt;/p&gt;&lt;p&gt;&lt;b&gt;R libraries: lmPerm&lt;/b&gt;&lt;br&gt;&lt;/p&gt;" style="text;html=1;spacing=5;spacingTop=-20;whiteSpace=wrap;overflow=hidden;rounded=0;fillColor=#ffffff;strokeColor=#000000;" parent="Vn1AuMzDJVdrEZINoW1q-7" vertex="1">
          <mxGeometry x="498" y="210" width="282" height="130" as="geometry" />
        </mxCell>
        <mxCell id="6e8Cwwr0hj-UMSGpgfXc-19" value="" style="group" parent="Vn1AuMzDJVdrEZINoW1q-7" vertex="1" connectable="0">
          <mxGeometry x="50" y="490" width="440" height="460" as="geometry" />
        </mxCell>
        <mxCell id="6e8Cwwr0hj-UMSGpgfXc-5" value="" style="rounded=0;whiteSpace=wrap;html=1;strokeColor=#000000;fillColor=#ffffff;" parent="6e8Cwwr0hj-UMSGpgfXc-19" vertex="1">
          <mxGeometry width="440" height="460" as="geometry" />
        </mxCell>
        <mxCell id="xw4S7eZGQW3ErX5LzovB-0" value="&lt;h1&gt;MSI-tool&lt;/h1&gt;&lt;p&gt;Multi-species monte carlo method for assessing species trends from a reference year. Used for calculation fo SEBI 1 (&lt;a class=&quot;doi&quot; href=&quot;https://doi.org/10.1016/j.ecolind.2017.05.033&quot; target=&quot;_blank&quot; title=&quot;Persistent link using digital object identifier&quot;&gt;https://doi.org/10.1016/j.ecolind.2017.05.033). &lt;br&gt;&lt;/a&gt;&lt;/p&gt;" style="text;html=1;spacing=5;spacingTop=-20;whiteSpace=wrap;overflow=hidden;rounded=0;fillColor=#fff2cc;strokeColor=#d6b656;" parent="6e8Cwwr0hj-UMSGpgfXc-19" vertex="1">
          <mxGeometry x="40" y="280" width="200" height="140" as="geometry" />
        </mxCell>
        <mxCell id="jobuWl_KfaXL-yA0P-ZW-14" value="&lt;h1&gt;&lt;font style=&quot;font-size: 24px&quot;&gt;R library: BRCindicators&lt;/font&gt;&lt;/h1&gt;&lt;div style=&quot;font-size: 12px&quot;&gt;Assessment of single or multi species yearly trends. &lt;br&gt;&lt;/div&gt;&lt;div&gt;&lt;br&gt;&lt;/div&gt;&lt;div&gt;&lt;br&gt; &lt;/div&gt;" style="text;html=1;spacing=5;spacingTop=-20;whiteSpace=wrap;overflow=hidden;rounded=0;fillColor=#fff2cc;strokeColor=#d6b656;fontSize=24;" parent="6e8Cwwr0hj-UMSGpgfXc-19" vertex="1">
          <mxGeometry x="40" y="90" width="350" height="150" as="geometry" />
        </mxCell>
        <mxCell id="6e8Cwwr0hj-UMSGpgfXc-6" value="Species Indicator Time trends" style="text;html=1;strokeColor=none;fillColor=none;align=center;verticalAlign=middle;whiteSpace=wrap;rounded=0;fontSize=24;fontStyle=1" parent="6e8Cwwr0hj-UMSGpgfXc-19" vertex="1">
          <mxGeometry x="24.5" y="30" width="385.5" height="20" as="geometry" />
        </mxCell>
        <mxCell id="nuO9TFtqxaYfnLADoFkb-14" value="" style="edgeStyle=orthogonalEdgeStyle;rounded=1;orthogonalLoop=1;jettySize=auto;html=1;" parent="Vn1AuMzDJVdrEZINoW1q-7" source="nuO9TFtqxaYfnLADoFkb-13" target="6e8Cwwr0hj-UMSGpgfXc-5" edge="1">
          <mxGeometry relative="1" as="geometry">
            <mxPoint x="90" y="400" as="targetPoint" />
          </mxGeometry>
        </mxCell>
        <mxCell id="6e8Cwwr0hj-UMSGpgfXc-28" style="edgeStyle=orthogonalEdgeStyle;rounded=1;orthogonalLoop=1;jettySize=auto;html=1;fontSize=20;entryX=0.5;entryY=1;entryDx=0;entryDy=0;" parent="WIyWlLk6GJQsqaUBKTNV-1" source="6e8Cwwr0hj-UMSGpgfXc-23" target="6e8Cwwr0hj-UMSGpgfXc-7" edge="1">
          <mxGeometry relative="1" as="geometry">
            <mxPoint x="7210" y="2620" as="targetPoint" />
            <Array as="points">
              <mxPoint x="6255" y="3300" />
              <mxPoint x="6250" y="3300" />
              <mxPoint x="6250" y="2478" />
              <mxPoint x="6435" y="2478" />
            </Array>
          </mxGeometry>
        </mxCell>
        <mxCell id="Vn1AuMzDJVdrEZINoW1q-13" value="" style="group" vertex="1" connectable="0" parent="WIyWlLk6GJQsqaUBKTNV-1">
          <mxGeometry x="9090" y="1340" width="800" height="640" as="geometry" />
        </mxCell>
        <mxCell id="jobuWl_KfaXL-yA0P-ZW-13" value="" style="rounded=0;whiteSpace=wrap;html=1;fontSize=24;" parent="Vn1AuMzDJVdrEZINoW1q-13" vertex="1">
          <mxGeometry width="800" height="640" as="geometry" />
        </mxCell>
        <mxCell id="jobuWl_KfaXL-yA0P-ZW-16" value="&lt;b&gt;Bias&lt;/b&gt;" style="text;html=1;strokeColor=none;fillColor=none;align=center;verticalAlign=middle;whiteSpace=wrap;rounded=0;fontSize=24;" parent="Vn1AuMzDJVdrEZINoW1q-13" vertex="1">
          <mxGeometry x="40" y="30" width="40" height="20" as="geometry" />
        </mxCell>
        <mxCell id="sg-I6Dr9140E_a6tFQ04-2" value="Bias in species distribution modelling is a much discussed topic however all data sets are biased to some degree. The range of biases will differ depending on the analyses done. In data sets aggregated from multiple data sources numerous different sources of bias may be present. Such sources of bias may be spatial, temporal or qualitive ." style="text;html=1;strokeColor=none;fillColor=none;align=left;verticalAlign=top;whiteSpace=wrap;rounded=0;" parent="Vn1AuMzDJVdrEZINoW1q-13" vertex="1">
          <mxGeometry x="37" y="80" width="690" height="160" as="geometry" />
        </mxCell>
        <mxCell id="sg-I6Dr9140E_a6tFQ04-4" value="Were the data gathered systematically?" style="rhombus;whiteSpace=wrap;html=1;align=center;" parent="Vn1AuMzDJVdrEZINoW1q-13" vertex="1">
          <mxGeometry x="20" y="205" width="197" height="160" as="geometry" />
        </mxCell>
        <mxCell id="sg-I6Dr9140E_a6tFQ04-5" value="Do the data come from a curated natural history collection?" style="rhombus;whiteSpace=wrap;html=1;align=center;" parent="Vn1AuMzDJVdrEZINoW1q-13" vertex="1">
          <mxGeometry x="258" y="200" width="230" height="170" as="geometry" />
        </mxCell>
        <mxCell id="sg-I6Dr9140E_a6tFQ04-6" value="Do the data come from opportunistic&amp;nbsp; communitty science sources?" style="rhombus;whiteSpace=wrap;html=1;align=center;" parent="Vn1AuMzDJVdrEZINoW1q-13" vertex="1">
          <mxGeometry x="530" y="205" width="197" height="160" as="geometry" />
        </mxCell>
        <mxCell id="sg-I6Dr9140E_a6tFQ04-7" value="Are they a mix of sources?" style="rhombus;whiteSpace=wrap;html=1;align=center;" parent="Vn1AuMzDJVdrEZINoW1q-13" vertex="1">
          <mxGeometry x="140" y="320" width="197" height="160" as="geometry" />
        </mxCell>
        <mxCell id="l_WFNnPwY0MCgCIW6E0b-43" value="Are certain areas more likely to be sampled over others? " style="rhombus;whiteSpace=wrap;html=1;align=center;" parent="Vn1AuMzDJVdrEZINoW1q-13" vertex="1">
          <mxGeometry x="410" y="320" width="197" height="160" as="geometry" />
        </mxCell>
        <mxCell id="hmOcISKYs5yDdYKpSmGY-29" value="Are there qualitative differences?" style="rhombus;whiteSpace=wrap;html=1;align=center;" parent="Vn1AuMzDJVdrEZINoW1q-13" vertex="1">
          <mxGeometry x="274.5" y="430" width="197" height="160" as="geometry" />
        </mxCell>
        <mxCell id="Vn1AuMzDJVdrEZINoW1q-14" value="" style="group" vertex="1" connectable="0" parent="WIyWlLk6GJQsqaUBKTNV-1">
          <mxGeometry x="3155" y="760" width="1523.5" height="1107.51" as="geometry" />
        </mxCell>
        <mxCell id="i0vj7bkVoeIxhTv1__Wb-28" value="" style="group;labelBackgroundColor=none;fillColor=#f8cecc;strokeColor=#b85450;gradientColor=#ffffff;gradientDirection=north;" parent="Vn1AuMzDJVdrEZINoW1q-14" vertex="1" connectable="0">
          <mxGeometry width="1455" height="976.32" as="geometry" />
        </mxCell>
        <mxCell id="xw4S7eZGQW3ErX5LzovB-7" value="&lt;h1&gt;Spatial Missingness&lt;br&gt;&lt;/h1&gt;&lt;p&gt;.&lt;/p&gt;" style="text;html=1;spacing=5;spacingTop=-20;whiteSpace=wrap;overflow=hidden;rounded=0;fillColor=#ffffff;strokeColor=#000000;" parent="Vn1AuMzDJVdrEZINoW1q-14" vertex="1">
          <mxGeometry x="1156" y="48.16000000000008" width="240" height="50" as="geometry" />
        </mxCell>
        <mxCell id="xw4S7eZGQW3ErX5LzovB-8" value="&lt;h1&gt;Temporal Completeness&lt;br&gt;&lt;/h1&gt;" style="text;html=1;spacing=5;spacingTop=-20;whiteSpace=wrap;overflow=hidden;rounded=0;fillColor=#ffffff;strokeColor=#000000;" parent="Vn1AuMzDJVdrEZINoW1q-14" vertex="1">
          <mxGeometry x="337.5" y="48.16000000000008" width="295" height="50" as="geometry" />
        </mxCell>
        <mxCell id="xw4S7eZGQW3ErX5LzovB-9" value="&lt;h1&gt;Sampling effort&lt;br&gt;&lt;/h1&gt;&lt;p&gt;&lt;br&gt;&lt;/p&gt;" style="text;html=1;spacing=5;spacingTop=-20;whiteSpace=wrap;overflow=hidden;rounded=0;fillColor=#ffffff;strokeColor=#000000;" parent="Vn1AuMzDJVdrEZINoW1q-14" vertex="1">
          <mxGeometry x="669.5" y="48.16000000000008" width="190" height="50" as="geometry" />
        </mxCell>
        <mxCell id="xw4S7eZGQW3ErX5LzovB-22" value="&lt;h1&gt;Taxonomic Completeness&lt;br&gt;&lt;/h1&gt;" style="text;html=1;spacing=5;spacingTop=-20;whiteSpace=wrap;overflow=hidden;rounded=0;fillColor=#ffffff;strokeColor=#000000;" parent="Vn1AuMzDJVdrEZINoW1q-14" vertex="1">
          <mxGeometry x="15" y="48.16000000000008" width="310" height="50" as="geometry" />
        </mxCell>
        <mxCell id="K3oOLh2pZVhGYxKfuLFw-23" value="&lt;h1&gt;Visualisation of data&lt;br&gt;&lt;/h1&gt;&lt;p&gt;&lt;br&gt;&lt;/p&gt;" style="text;html=1;spacing=5;spacingTop=-20;whiteSpace=wrap;overflow=hidden;rounded=0;fillColor=#ffffff;strokeColor=#000000;" parent="Vn1AuMzDJVdrEZINoW1q-14" vertex="1">
          <mxGeometry x="714.0899999999999" y="516.3199999999999" width="280" height="50" as="geometry" />
        </mxCell>
        <mxCell id="K3oOLh2pZVhGYxKfuLFw-60" value="" style="endArrow=classic;html=1;fontSize=24;edgeStyle=orthogonalEdgeStyle;exitX=0.5;exitY=1;exitDx=0;exitDy=0;jumpStyle=arc;jumpSize=9;entryX=0;entryY=0.5;entryDx=0;entryDy=0;" parent="Vn1AuMzDJVdrEZINoW1q-14" source="K3oOLh2pZVhGYxKfuLFw-23" target="hmOcISKYs5yDdYKpSmGY-9" edge="1">
          <mxGeometry x="-360.90999999999997" y="86.32000000000016" width="50" height="50" as="geometry">
            <mxPoint x="549.0899999999999" y="516.3199999999999" as="sourcePoint" />
            <mxPoint x="745" y="650.0000000000002" as="targetPoint" />
            <Array as="points">
              <mxPoint x="854" y="598.1600000000001" />
              <mxPoint x="945" y="598.1600000000001" />
            </Array>
          </mxGeometry>
        </mxCell>
        <mxCell id="l_WFNnPwY0MCgCIW6E0b-12" value="Are there large areas with no samples?" style="rhombus;whiteSpace=wrap;html=1;" parent="Vn1AuMzDJVdrEZINoW1q-14" vertex="1">
          <mxGeometry x="1161" y="181.31999999999994" width="230" height="100" as="geometry" />
        </mxCell>
        <mxCell id="l_WFNnPwY0MCgCIW6E0b-13" style="edgeStyle=orthogonalEdgeStyle;rounded=1;jumpStyle=arc;orthogonalLoop=1;jettySize=auto;html=1;" parent="Vn1AuMzDJVdrEZINoW1q-14" source="xw4S7eZGQW3ErX5LzovB-7" target="l_WFNnPwY0MCgCIW6E0b-12" edge="1">
          <mxGeometry relative="1" as="geometry" />
        </mxCell>
        <mxCell id="l_WFNnPwY0MCgCIW6E0b-14" value="Are there areas more heavily sampled than others? " style="rhombus;whiteSpace=wrap;html=1;" parent="Vn1AuMzDJVdrEZINoW1q-14" vertex="1">
          <mxGeometry x="649.5" y="186.31999999999994" width="230" height="100" as="geometry" />
        </mxCell>
        <mxCell id="hmOcISKYs5yDdYKpSmGY-0" style="edgeStyle=orthogonalEdgeStyle;rounded=0;orthogonalLoop=1;jettySize=auto;html=1;" parent="Vn1AuMzDJVdrEZINoW1q-14" source="xw4S7eZGQW3ErX5LzovB-9" target="l_WFNnPwY0MCgCIW6E0b-14" edge="1">
          <mxGeometry relative="1" as="geometry" />
        </mxCell>
        <mxCell id="l_WFNnPwY0MCgCIW6E0b-15" value="How do the number of samples change over time " style="rhombus;whiteSpace=wrap;html=1;" parent="Vn1AuMzDJVdrEZINoW1q-14" vertex="1">
          <mxGeometry x="345" y="186.31999999999994" width="280" height="100" as="geometry" />
        </mxCell>
        <mxCell id="l_WFNnPwY0MCgCIW6E0b-20" style="edgeStyle=orthogonalEdgeStyle;rounded=1;jumpStyle=arc;orthogonalLoop=1;jettySize=auto;html=1;" parent="Vn1AuMzDJVdrEZINoW1q-14" source="xw4S7eZGQW3ErX5LzovB-8" target="l_WFNnPwY0MCgCIW6E0b-15" edge="1">
          <mxGeometry relative="1" as="geometry" />
        </mxCell>
        <mxCell id="l_WFNnPwY0MCgCIW6E0b-16" value="Are there the number of species expected present?" style="rhombus;whiteSpace=wrap;html=1;" parent="Vn1AuMzDJVdrEZINoW1q-14" vertex="1">
          <mxGeometry x="30" y="186.31999999999994" width="280" height="100" as="geometry" />
        </mxCell>
        <mxCell id="l_WFNnPwY0MCgCIW6E0b-18" style="edgeStyle=orthogonalEdgeStyle;rounded=1;jumpStyle=arc;orthogonalLoop=1;jettySize=auto;html=1;entryX=0.5;entryY=0;entryDx=0;entryDy=0;" parent="Vn1AuMzDJVdrEZINoW1q-14" source="xw4S7eZGQW3ErX5LzovB-22" target="l_WFNnPwY0MCgCIW6E0b-16" edge="1">
          <mxGeometry relative="1" as="geometry" />
        </mxCell>
        <mxCell id="hmOcISKYs5yDdYKpSmGY-2" style="edgeStyle=orthogonalEdgeStyle;rounded=1;orthogonalLoop=1;jettySize=auto;html=1;" parent="Vn1AuMzDJVdrEZINoW1q-14" source="l_WFNnPwY0MCgCIW6E0b-22" edge="1">
          <mxGeometry relative="1" as="geometry">
            <mxPoint x="860" y="516.3199999999999" as="targetPoint" />
          </mxGeometry>
        </mxCell>
        <mxCell id="l_WFNnPwY0MCgCIW6E0b-22" value="Does it matter if sampling effort varies in both time and space? If so how?" style="rhombus;whiteSpace=wrap;html=1;" parent="Vn1AuMzDJVdrEZINoW1q-14" vertex="1">
          <mxGeometry x="625" y="306.31999999999994" width="280" height="141.84" as="geometry" />
        </mxCell>
        <mxCell id="l_WFNnPwY0MCgCIW6E0b-25" style="edgeStyle=orthogonalEdgeStyle;rounded=1;jumpStyle=arc;orthogonalLoop=1;jettySize=auto;html=1;entryX=1;entryY=0.5;entryDx=0;entryDy=0;" parent="Vn1AuMzDJVdrEZINoW1q-14" source="l_WFNnPwY0MCgCIW6E0b-12" target="l_WFNnPwY0MCgCIW6E0b-22" edge="1">
          <mxGeometry relative="1" as="geometry">
            <Array as="points">
              <mxPoint x="1276" y="377.1600000000001" />
            </Array>
          </mxGeometry>
        </mxCell>
        <mxCell id="l_WFNnPwY0MCgCIW6E0b-26" style="edgeStyle=orthogonalEdgeStyle;rounded=1;jumpStyle=arc;orthogonalLoop=1;jettySize=auto;html=1;entryX=0.5;entryY=0;entryDx=0;entryDy=0;" parent="Vn1AuMzDJVdrEZINoW1q-14" source="l_WFNnPwY0MCgCIW6E0b-14" target="l_WFNnPwY0MCgCIW6E0b-22" edge="1">
          <mxGeometry relative="1" as="geometry" />
        </mxCell>
        <mxCell id="l_WFNnPwY0MCgCIW6E0b-24" style="edgeStyle=orthogonalEdgeStyle;rounded=1;jumpStyle=arc;orthogonalLoop=1;jettySize=auto;html=1;entryX=0;entryY=0.5;entryDx=0;entryDy=0;" parent="Vn1AuMzDJVdrEZINoW1q-14" source="l_WFNnPwY0MCgCIW6E0b-15" target="l_WFNnPwY0MCgCIW6E0b-22" edge="1">
          <mxGeometry relative="1" as="geometry">
            <Array as="points">
              <mxPoint x="485" y="377.1600000000001" />
            </Array>
          </mxGeometry>
        </mxCell>
        <mxCell id="l_WFNnPwY0MCgCIW6E0b-41" style="edgeStyle=orthogonalEdgeStyle;rounded=1;jumpStyle=arc;orthogonalLoop=1;jettySize=auto;html=1;entryX=0;entryY=0.5;entryDx=0;entryDy=0;" parent="Vn1AuMzDJVdrEZINoW1q-14" target="hmOcISKYs5yDdYKpSmGY-10" edge="1">
          <mxGeometry relative="1" as="geometry">
            <mxPoint x="855" y="566.3199999999999" as="sourcePoint" />
            <mxPoint x="1027" y="648.1600000000001" as="targetPoint" />
            <Array as="points">
              <mxPoint x="855" y="599.1600000000001" />
              <mxPoint x="1145" y="599.1600000000001" />
            </Array>
          </mxGeometry>
        </mxCell>
        <mxCell id="hmOcISKYs5yDdYKpSmGY-7" value="&lt;h1&gt;Data&lt;/h1&gt;&lt;div&gt;Frame, array or list with correct names data quality and missingness labelled. There should be no taxonomic problems as there is an agreed, local taxonomy problems no should be related to spatial accuracy and sampling effort&lt;br&gt;&lt;/div&gt;" style="text;html=1;spacing=5;spacingTop=-20;whiteSpace=wrap;overflow=hidden;rounded=0;fillColor=#ffffff;strokeColor=#000000;" parent="Vn1AuMzDJVdrEZINoW1q-14" vertex="1">
          <mxGeometry x="435" y="988.8199999999999" width="400" height="118.69" as="geometry" />
        </mxCell>
        <mxCell id="mfQDYrMZqN6Y804PRQHQ-5" style="edgeStyle=orthogonalEdgeStyle;rounded=1;orthogonalLoop=1;jettySize=auto;html=1;entryX=0.5;entryY=0;entryDx=0;entryDy=0;" parent="Vn1AuMzDJVdrEZINoW1q-14" source="hmOcISKYs5yDdYKpSmGY-8" target="hmOcISKYs5yDdYKpSmGY-7" edge="1">
          <mxGeometry relative="1" as="geometry">
            <Array as="points">
              <mxPoint x="695" y="908.1600000000001" />
              <mxPoint x="635" y="908.1600000000001" />
            </Array>
          </mxGeometry>
        </mxCell>
        <mxCell id="hmOcISKYs5yDdYKpSmGY-8" value="&lt;font style=&quot;font-size: 24px&quot;&gt;Temporal plotting&lt;/font&gt;" style="shape=hexagon;perimeter=hexagonPerimeter2;whiteSpace=wrap;html=1;fixedSize=1;rounded=0;labelBackgroundColor=none;strokeColor=#000000;fillColor=#ffffff;gradientColor=#ffffff;fontSize=12;direction=south;" parent="Vn1AuMzDJVdrEZINoW1q-14" vertex="1">
          <mxGeometry x="615" y="688.1600000000001" width="160" height="110" as="geometry" />
        </mxCell>
        <mxCell id="hmOcISKYs5yDdYKpSmGY-4" style="edgeStyle=orthogonalEdgeStyle;rounded=1;orthogonalLoop=1;jettySize=auto;html=1;entryX=0;entryY=0.5;entryDx=0;entryDy=0;" parent="Vn1AuMzDJVdrEZINoW1q-14" source="K3oOLh2pZVhGYxKfuLFw-23" target="hmOcISKYs5yDdYKpSmGY-8" edge="1">
          <mxGeometry relative="1" as="geometry">
            <mxPoint x="435" y="650.0000000000002" as="targetPoint" />
            <Array as="points">
              <mxPoint x="854" y="598.1600000000001" />
              <mxPoint x="695" y="598.1600000000001" />
            </Array>
          </mxGeometry>
        </mxCell>
        <mxCell id="mfQDYrMZqN6Y804PRQHQ-6" style="edgeStyle=orthogonalEdgeStyle;rounded=1;orthogonalLoop=1;jettySize=auto;html=1;entryX=0.5;entryY=0;entryDx=0;entryDy=0;" parent="Vn1AuMzDJVdrEZINoW1q-14" source="hmOcISKYs5yDdYKpSmGY-9" target="hmOcISKYs5yDdYKpSmGY-7" edge="1">
          <mxGeometry relative="1" as="geometry">
            <Array as="points">
              <mxPoint x="945" y="908.1600000000001" />
              <mxPoint x="635" y="908.1600000000001" />
            </Array>
          </mxGeometry>
        </mxCell>
        <mxCell id="hmOcISKYs5yDdYKpSmGY-9" value="&lt;font style=&quot;font-size: 24px&quot;&gt;Spatial Point plotting&lt;/font&gt;" style="shape=hexagon;perimeter=hexagonPerimeter2;whiteSpace=wrap;html=1;fixedSize=1;rounded=0;labelBackgroundColor=none;strokeColor=#000000;fillColor=#ffffff;gradientColor=#ffffff;fontSize=12;direction=south;" parent="Vn1AuMzDJVdrEZINoW1q-14" vertex="1">
          <mxGeometry x="865" y="688.1600000000001" width="160" height="110" as="geometry" />
        </mxCell>
        <mxCell id="mfQDYrMZqN6Y804PRQHQ-7" style="edgeStyle=orthogonalEdgeStyle;rounded=1;orthogonalLoop=1;jettySize=auto;html=1;" parent="Vn1AuMzDJVdrEZINoW1q-14" source="hmOcISKYs5yDdYKpSmGY-10" target="hmOcISKYs5yDdYKpSmGY-7" edge="1">
          <mxGeometry relative="1" as="geometry">
            <Array as="points">
              <mxPoint x="1145" y="908.1600000000001" />
              <mxPoint x="635" y="908.1600000000001" />
            </Array>
          </mxGeometry>
        </mxCell>
        <mxCell id="hmOcISKYs5yDdYKpSmGY-10" value="&lt;font style=&quot;font-size: 24px&quot;&gt;Sample density&lt;/font&gt;" style="shape=hexagon;perimeter=hexagonPerimeter2;whiteSpace=wrap;html=1;fixedSize=1;rounded=0;labelBackgroundColor=none;strokeColor=#000000;fillColor=#ffffff;gradientColor=#ffffff;fontSize=12;direction=south;" parent="Vn1AuMzDJVdrEZINoW1q-14" vertex="1">
          <mxGeometry x="1065" y="688.1600000000001" width="160" height="110" as="geometry" />
        </mxCell>
        <mxCell id="mfQDYrMZqN6Y804PRQHQ-3" style="edgeStyle=orthogonalEdgeStyle;rounded=1;orthogonalLoop=1;jettySize=auto;html=1;" parent="Vn1AuMzDJVdrEZINoW1q-14" source="hmOcISKYs5yDdYKpSmGY-11" target="hmOcISKYs5yDdYKpSmGY-7" edge="1">
          <mxGeometry relative="1" as="geometry">
            <Array as="points">
              <mxPoint x="170" y="908.1600000000001" />
              <mxPoint x="635" y="908.1600000000001" />
            </Array>
          </mxGeometry>
        </mxCell>
        <mxCell id="hmOcISKYs5yDdYKpSmGY-11" value="&lt;font style=&quot;font-size: 24px&quot;&gt;Summary Tables&lt;/font&gt;" style="shape=hexagon;perimeter=hexagonPerimeter2;whiteSpace=wrap;html=1;fixedSize=1;rounded=0;labelBackgroundColor=none;strokeColor=#000000;fillColor=#ffffff;gradientColor=#ffffff;fontSize=12;direction=south;" parent="Vn1AuMzDJVdrEZINoW1q-14" vertex="1">
          <mxGeometry x="90" y="688.1600000000001" width="160" height="110" as="geometry" />
        </mxCell>
        <mxCell id="l_WFNnPwY0MCgCIW6E0b-19" style="edgeStyle=orthogonalEdgeStyle;rounded=1;jumpStyle=arc;orthogonalLoop=1;jettySize=auto;html=1;entryX=0;entryY=0.5;entryDx=0;entryDy=0;" parent="Vn1AuMzDJVdrEZINoW1q-14" source="l_WFNnPwY0MCgCIW6E0b-16" target="hmOcISKYs5yDdYKpSmGY-11" edge="1">
          <mxGeometry relative="1" as="geometry">
            <mxPoint x="123.75" y="516.3200000000004" as="targetPoint" />
          </mxGeometry>
        </mxCell>
        <mxCell id="mfQDYrMZqN6Y804PRQHQ-4" style="edgeStyle=orthogonalEdgeStyle;rounded=1;orthogonalLoop=1;jettySize=auto;html=1;entryX=0.5;entryY=0;entryDx=0;entryDy=0;" parent="Vn1AuMzDJVdrEZINoW1q-14" source="Ht7DqxaqcuQZNmXZxaJC-2" target="hmOcISKYs5yDdYKpSmGY-7" edge="1">
          <mxGeometry relative="1" as="geometry">
            <Array as="points">
              <mxPoint x="483" y="908.1600000000001" />
              <mxPoint x="635" y="908.1600000000001" />
            </Array>
          </mxGeometry>
        </mxCell>
        <mxCell id="Ht7DqxaqcuQZNmXZxaJC-2" value="&lt;font style=&quot;font-size: 24px&quot;&gt;Ignorance Scores&lt;/font&gt;" style="shape=hexagon;perimeter=hexagonPerimeter2;whiteSpace=wrap;html=1;fixedSize=1;rounded=0;labelBackgroundColor=none;strokeColor=#000000;fillColor=#ffffff;gradientColor=#ffffff;fontSize=12;direction=south;" parent="Vn1AuMzDJVdrEZINoW1q-14" vertex="1">
          <mxGeometry x="402.5" y="688.1600000000001" width="160" height="110" as="geometry" />
        </mxCell>
        <mxCell id="hmOcISKYs5yDdYKpSmGY-3" style="edgeStyle=orthogonalEdgeStyle;rounded=1;orthogonalLoop=1;jettySize=auto;html=1;entryX=0;entryY=0.5;entryDx=0;entryDy=0;" parent="Vn1AuMzDJVdrEZINoW1q-14" source="K3oOLh2pZVhGYxKfuLFw-23" target="Ht7DqxaqcuQZNmXZxaJC-2" edge="1">
          <mxGeometry relative="1" as="geometry">
            <mxPoint x="460.1999999999998" y="722.24" as="targetPoint" />
          </mxGeometry>
        </mxCell>
        <mxCell id="l_WFNnPwY0MCgCIW6E0b-21" style="edgeStyle=orthogonalEdgeStyle;rounded=1;jumpStyle=arc;orthogonalLoop=1;jettySize=auto;html=1;entryX=0;entryY=0.5;entryDx=0;entryDy=0;" parent="Vn1AuMzDJVdrEZINoW1q-14" source="l_WFNnPwY0MCgCIW6E0b-15" target="Ht7DqxaqcuQZNmXZxaJC-2" edge="1">
          <mxGeometry relative="1" as="geometry">
            <Array as="points">
              <mxPoint x="483" y="348.1600000000001" />
              <mxPoint x="483" y="348.1600000000001" />
            </Array>
            <mxPoint x="485" y="698.1600000000001" as="targetPoint" />
          </mxGeometry>
        </mxCell>
        <mxCell id="l_WFNnPwY0MCgCIW6E0b-23" style="edgeStyle=orthogonalEdgeStyle;rounded=1;jumpStyle=arc;orthogonalLoop=1;jettySize=auto;html=1;entryX=0;entryY=0.5;entryDx=0;entryDy=0;" parent="Vn1AuMzDJVdrEZINoW1q-14" source="l_WFNnPwY0MCgCIW6E0b-15" target="Ht7DqxaqcuQZNmXZxaJC-2" edge="1">
          <mxGeometry relative="1" as="geometry">
            <Array as="points">
              <mxPoint x="483" y="318.1600000000001" />
              <mxPoint x="483" y="318.1600000000001" />
            </Array>
            <mxPoint x="565" y="698.1600000000001" as="targetPoint" />
          </mxGeometry>
        </mxCell>
        <mxCell id="hmOcISKYs5yDdYKpSmGY-1" style="edgeStyle=orthogonalEdgeStyle;rounded=1;orthogonalLoop=1;jettySize=auto;html=1;entryX=0;entryY=0.5;entryDx=0;entryDy=0;" parent="Vn1AuMzDJVdrEZINoW1q-14" source="l_WFNnPwY0MCgCIW6E0b-22" target="Ht7DqxaqcuQZNmXZxaJC-2" edge="1">
          <mxGeometry relative="1" as="geometry">
            <Array as="points">
              <mxPoint x="765" y="488.1600000000001" />
              <mxPoint x="482" y="488.1600000000001" />
            </Array>
            <mxPoint x="475" y="658.1600000000001" as="targetPoint" />
          </mxGeometry>
        </mxCell>
        <mxCell id="Ht7DqxaqcuQZNmXZxaJC-8" style="edgeStyle=orthogonalEdgeStyle;rounded=1;orthogonalLoop=1;jettySize=auto;html=1;entryX=0;entryY=0.5;entryDx=0;entryDy=0;jumpStyle=arc;" parent="Vn1AuMzDJVdrEZINoW1q-14" source="Ht7DqxaqcuQZNmXZxaJC-4" target="hmOcISKYs5yDdYKpSmGY-11" edge="1">
          <mxGeometry relative="1" as="geometry">
            <mxPoint x="195" y="692.1600000000001" as="targetPoint" />
            <Array as="points">
              <mxPoint x="1028" y="468.1600000000001" />
              <mxPoint x="170" y="468.1600000000001" />
            </Array>
          </mxGeometry>
        </mxCell>
        <mxCell id="Ht7DqxaqcuQZNmXZxaJC-4" value="How uncertain are the coordinates" style="rhombus;whiteSpace=wrap;html=1;" parent="Vn1AuMzDJVdrEZINoW1q-14" vertex="1">
          <mxGeometry x="913" y="186.31999999999994" width="230" height="100" as="geometry" />
        </mxCell>
        <mxCell id="Ht7DqxaqcuQZNmXZxaJC-7" style="edgeStyle=orthogonalEdgeStyle;rounded=1;orthogonalLoop=1;jettySize=auto;html=1;entryX=0.5;entryY=0;entryDx=0;entryDy=0;" parent="Vn1AuMzDJVdrEZINoW1q-14" source="xw4S7eZGQW3ErX5LzovB-9" target="Ht7DqxaqcuQZNmXZxaJC-4" edge="1">
          <mxGeometry relative="1" as="geometry" />
        </mxCell>
        <mxCell id="6e8Cwwr0hj-UMSGpgfXc-1" value="&lt;h1&gt;BIRDS&lt;/h1&gt;&lt;p&gt;Functions to plot and calculate these features of data sources are available in the &lt;b&gt;BIRDS&amp;nbsp; &lt;/b&gt;repository.&lt;/p&gt;" style="text;html=1;spacing=5;spacingTop=-20;whiteSpace=wrap;overflow=hidden;rounded=0;fillColor=#ffffff;strokeColor=#000000;" parent="Vn1AuMzDJVdrEZINoW1q-14" vertex="1">
          <mxGeometry x="1085" y="448.1600000000001" width="306" height="110" as="geometry" />
        </mxCell>
        <mxCell id="i0vj7bkVoeIxhTv1__Wb-59" value="&lt;div&gt;&lt;b&gt;&lt;font style=&quot;font-size: 20px&quot;&gt;Data Completeness, Missingness&lt;br&gt;&lt;/font&gt;&lt;/b&gt;&lt;/div&gt;&lt;div&gt;&lt;b&gt;&lt;font style=&quot;font-size: 20px&quot;&gt;&amp;amp; &lt;br&gt;&lt;/font&gt;&lt;/b&gt;&lt;/div&gt;&lt;div&gt;&lt;b&gt;&lt;font style=&quot;font-size: 20px&quot;&gt;Sampling&lt;/font&gt;&lt;/b&gt;&lt;/div&gt;&lt;div&gt;&lt;b&gt;&lt;font style=&quot;font-size: 20px&quot;&gt;Effort&lt;br&gt;&lt;/font&gt;&lt;/b&gt;&lt;/div&gt;" style="ellipse;whiteSpace=wrap;html=1;aspect=fixed;labelBackgroundColor=none;strokeColor=#b85450;fillColor=#f8cecc;fontSize=12;" parent="Vn1AuMzDJVdrEZINoW1q-14" vertex="1">
          <mxGeometry x="1370" y="-60" width="153.5" height="153.5" as="geometry" />
        </mxCell>
        <mxCell id="Vn1AuMzDJVdrEZINoW1q-16" value="" style="group" vertex="1" connectable="0" parent="WIyWlLk6GJQsqaUBKTNV-1">
          <mxGeometry x="970" y="720.86" width="1410" height="880.0000000000001" as="geometry" />
        </mxCell>
        <mxCell id="0EG8Ja6DzPZJZKJsx15a-2" value="" style="group;collapsible=1;" parent="Vn1AuMzDJVdrEZINoW1q-16" vertex="1" connectable="0">
          <mxGeometry width="1410" height="880.0000000000001" as="geometry">
            <mxRectangle x="970" y="720.86" width="50" height="40" as="alternateBounds" />
          </mxGeometry>
        </mxCell>
        <mxCell id="aXcIpb9wPaynXJKiq8YG-6" value="" style="rounded=0;whiteSpace=wrap;html=1;" parent="0EG8Ja6DzPZJZKJsx15a-2" vertex="1">
          <mxGeometry width="1410" height="880" as="geometry" />
        </mxCell>
        <mxCell id="aXcIpb9wPaynXJKiq8YG-22" value="&lt;h1&gt;Data cleaning&lt;br&gt;&lt;/h1&gt;&lt;p&gt;There are a number of published workflows and R packages that aim to ease the process of downloading and cleaning data these include but are not limited to: &lt;br&gt;&lt;/p&gt;&lt;ul&gt;&lt;li&gt;The BDverse and associated packages&lt;br&gt;&lt;/li&gt;&lt;li&gt;Wallace&lt;/li&gt;&lt;li&gt;BDcleaner&lt;/li&gt;&lt;/ul&gt;&lt;div&gt;The use of such workflows and outputs are context specific and are dependent on researchers personal choices. Many of these workflows overlap. In this workflow we present suggestions for things to consider in cleaning data.&lt;br&gt;&lt;/div&gt;&lt;div&gt;&lt;br&gt;&lt;/div&gt;&lt;br&gt;&lt;p&gt;&lt;br&gt;&lt;/p&gt;" style="text;html=1;strokeColor=none;fillColor=none;spacing=5;spacingTop=-20;whiteSpace=wrap;overflow=hidden;rounded=0;" parent="0EG8Ja6DzPZJZKJsx15a-2" vertex="1">
          <mxGeometry x="20" y="9.139999999999986" width="332" height="230" as="geometry" />
        </mxCell>
        <mxCell id="iHcdqhV0YViVewFqACI8-45" value="Are there records with missing data " style="rhombus;whiteSpace=wrap;html=1;fontSize=12;" parent="0EG8Ja6DzPZJZKJsx15a-2" vertex="1">
          <mxGeometry x="27" y="679.14" width="325" height="120" as="geometry" />
        </mxCell>
        <mxCell id="iHcdqhV0YViVewFqACI8-173" value="&lt;div&gt;Is there relevant data in the labels?&lt;/div&gt;&lt;div&gt;Extraction of these data points may not be necessary depending on number and/or spatial spread. &lt;br&gt;&lt;/div&gt;" style="rhombus;whiteSpace=wrap;html=1;fontSize=12;" parent="0EG8Ja6DzPZJZKJsx15a-2" vertex="1">
          <mxGeometry x="980" y="649.14" width="230" height="180" as="geometry" />
        </mxCell>
        <mxCell id="iHcdqhV0YViVewFqACI8-177" style="edgeStyle=orthogonalEdgeStyle;rounded=1;jumpStyle=arc;orthogonalLoop=1;jettySize=auto;html=1;endArrow=blockThin;endFill=1;fontSize=12;" parent="0EG8Ja6DzPZJZKJsx15a-2" source="iHcdqhV0YViVewFqACI8-45" target="iHcdqhV0YViVewFqACI8-173" edge="1">
          <mxGeometry relative="1" as="geometry" />
        </mxCell>
        <mxCell id="iHcdqhV0YViVewFqACI8-178" value="Yes" style="edgeLabel;html=1;align=center;verticalAlign=middle;resizable=0;points=[];fontSize=12;" parent="iHcdqhV0YViVewFqACI8-177" vertex="1" connectable="0">
          <mxGeometry x="-0.2734" relative="1" as="geometry">
            <mxPoint as="offset" />
          </mxGeometry>
        </mxCell>
        <mxCell id="w-YvjRMWvmcFSU0H_ef8-57" value="" style="group" parent="Vn1AuMzDJVdrEZINoW1q-16" vertex="1" connectable="0">
          <mxGeometry x="400" y="299.14" width="410" height="360" as="geometry" />
        </mxCell>
        <mxCell id="w-YvjRMWvmcFSU0H_ef8-54" value="" style="rounded=0;whiteSpace=wrap;html=1;strokeColor=#000000;fillColor=#ffffff;fontSize=24;" parent="w-YvjRMWvmcFSU0H_ef8-57" vertex="1">
          <mxGeometry width="409.99999999999994" height="360" as="geometry" />
        </mxCell>
        <mxCell id="w-YvjRMWvmcFSU0H_ef8-55" value="&lt;b&gt;Check coordinates:&lt;/b&gt;" style="text;html=1;strokeColor=none;fillColor=none;align=left;verticalAlign=middle;whiteSpace=wrap;rounded=0;fontSize=24;" parent="w-YvjRMWvmcFSU0H_ef8-57" vertex="1">
          <mxGeometry x="10.25" y="11.25" width="317.75" height="22.5" as="geometry" />
        </mxCell>
        <mxCell id="w-YvjRMWvmcFSU0H_ef8-56" value="&lt;font style=&quot;font-size: 12px&quot;&gt;There are a number of known issues with the accuracy of records data. These include but are not limited to:&lt;/font&gt;&lt;br&gt;&lt;ul style=&quot;font-size: 12px&quot;&gt;&lt;li&gt;Records outside the expected borders of the area of interest&lt;br&gt;&lt;/li&gt;&lt;li&gt;Records with unexpected coordinates eg latitude longitude = 0N, 0E&lt;/li&gt;&lt;li&gt;Records&lt;br&gt;&lt;/li&gt;&lt;li&gt;Records centred around known biodiversity institutions e.g. herbaria&lt;br&gt;&lt;/li&gt;&lt;/ul&gt;&lt;div style=&quot;font-size: 12px&quot;&gt;The R package &lt;b&gt;CoordinateCleaner &lt;/b&gt;flags records with accuracy issues. It has some flexibility and it is worthwhile considering sources of errors beyond the most easily used. For exaple it is possible to check against polygons of species known ranges provided suitable polgons.&lt;font style=&quot;font-size: 23px&quot;&gt;&lt;br&gt;&lt;/font&gt;&lt;/div&gt;" style="text;html=1;strokeColor=none;fillColor=none;align=left;verticalAlign=middle;whiteSpace=wrap;rounded=0;fontSize=24;" parent="w-YvjRMWvmcFSU0H_ef8-57" vertex="1">
          <mxGeometry x="20.5" y="78.75" width="317.75" height="210.9375" as="geometry" />
        </mxCell>
        <mxCell id="iHcdqhV0YViVewFqACI8-139" value="Extract and georeference" style="shape=hexagon;perimeter=hexagonPerimeter2;whiteSpace=wrap;html=1;fixedSize=1;rotation=0;direction=south;" parent="Vn1AuMzDJVdrEZINoW1q-16" vertex="1">
          <mxGeometry x="1163" y="99.13999999999999" width="160" height="150" as="geometry" />
        </mxCell>
        <mxCell id="iHcdqhV0YViVewFqACI8-140" value="Extract with script" style="shape=hexagon;perimeter=hexagonPerimeter2;whiteSpace=wrap;html=1;fixedSize=1;fontSize=12;rotation=0;direction=south;" parent="Vn1AuMzDJVdrEZINoW1q-16" vertex="1">
          <mxGeometry x="858" y="361.64" width="150" height="150" as="geometry" />
        </mxCell>
        <mxCell id="aXcIpb9wPaynXJKiq8YG-0" style="edgeStyle=orthogonalEdgeStyle;rounded=1;orthogonalLoop=1;jettySize=auto;html=1;entryX=1;entryY=0.5;entryDx=0;entryDy=0;exitX=0.5;exitY=1;exitDx=0;exitDy=0;" parent="Vn1AuMzDJVdrEZINoW1q-16" source="iHcdqhV0YViVewFqACI8-173" target="iHcdqhV0YViVewFqACI8-179" edge="1">
          <mxGeometry relative="1" as="geometry">
            <mxPoint x="910" y="859.14" as="targetPoint" />
            <Array as="points">
              <mxPoint x="1095" y="844.14" />
            </Array>
          </mxGeometry>
        </mxCell>
        <mxCell id="aXcIpb9wPaynXJKiq8YG-48" value="No" style="edgeLabel;html=1;align=center;verticalAlign=middle;resizable=0;points=[];" parent="aXcIpb9wPaynXJKiq8YG-0" vertex="1" connectable="0">
          <mxGeometry x="0.2597" y="-5" relative="1" as="geometry">
            <mxPoint as="offset" />
          </mxGeometry>
        </mxCell>
        <mxCell id="w-YvjRMWvmcFSU0H_ef8-48" style="edgeStyle=orthogonalEdgeStyle;rounded=1;orthogonalLoop=1;jettySize=auto;html=1;entryX=1;entryY=0.5;entryDx=0;entryDy=0;startArrow=none;startFill=0;endArrow=none;endFill=0;fontSize=24;" parent="Vn1AuMzDJVdrEZINoW1q-16" source="iHcdqhV0YViVewFqACI8-173" target="iHcdqhV0YViVewFqACI8-140" edge="1">
          <mxGeometry relative="1" as="geometry">
            <Array as="points">
              <mxPoint x="1095" y="569.14" />
              <mxPoint x="933" y="569.14" />
            </Array>
          </mxGeometry>
        </mxCell>
        <mxCell id="w-YvjRMWvmcFSU0H_ef8-49" value="&lt;font style=&quot;font-size: 12px&quot;&gt;Species&lt;/font&gt;" style="edgeLabel;html=1;align=center;verticalAlign=middle;resizable=0;points=[];fontSize=24;" parent="w-YvjRMWvmcFSU0H_ef8-48" vertex="1" connectable="0">
          <mxGeometry x="-0.1466" y="-1" relative="1" as="geometry">
            <mxPoint as="offset" />
          </mxGeometry>
        </mxCell>
        <mxCell id="aXcIpb9wPaynXJKiq8YG-33" style="edgeStyle=orthogonalEdgeStyle;rounded=1;orthogonalLoop=1;jettySize=auto;html=1;entryX=1;entryY=0.5;entryDx=0;entryDy=0;exitX=0.5;exitY=0;exitDx=0;exitDy=0;" parent="Vn1AuMzDJVdrEZINoW1q-16" source="aXcIpb9wPaynXJKiq8YG-29" target="iHcdqhV0YViVewFqACI8-139" edge="1">
          <mxGeometry relative="1" as="geometry">
            <Array as="points">
              <mxPoint x="1243" y="289.14" />
              <mxPoint x="1243" y="289.14" />
            </Array>
          </mxGeometry>
        </mxCell>
        <mxCell id="PL2IbDTsPNTnv49MF6vK-0" value="No" style="edgeLabel;html=1;align=center;verticalAlign=middle;resizable=0;points=[];" parent="aXcIpb9wPaynXJKiq8YG-33" vertex="1" connectable="0">
          <mxGeometry x="-0.365" relative="1" as="geometry">
            <mxPoint as="offset" />
          </mxGeometry>
        </mxCell>
        <mxCell id="aXcIpb9wPaynXJKiq8YG-34" style="edgeStyle=orthogonalEdgeStyle;rounded=1;orthogonalLoop=1;jettySize=auto;html=1;entryX=0.5;entryY=0;entryDx=0;entryDy=0;" parent="Vn1AuMzDJVdrEZINoW1q-16" source="aXcIpb9wPaynXJKiq8YG-29" target="iHcdqhV0YViVewFqACI8-140" edge="1">
          <mxGeometry relative="1" as="geometry" />
        </mxCell>
        <mxCell id="aXcIpb9wPaynXJKiq8YG-35" value="Yes" style="edgeLabel;html=1;align=center;verticalAlign=middle;resizable=0;points=[];" parent="aXcIpb9wPaynXJKiq8YG-34" vertex="1" connectable="0">
          <mxGeometry x="-0.2376" y="-1" relative="1" as="geometry">
            <mxPoint as="offset" />
          </mxGeometry>
        </mxCell>
        <mxCell id="aXcIpb9wPaynXJKiq8YG-29" value="Coordinates?" style="rhombus;whiteSpace=wrap;html=1;" parent="Vn1AuMzDJVdrEZINoW1q-16" vertex="1">
          <mxGeometry x="1168" y="361.64" width="150" height="150" as="geometry" />
        </mxCell>
        <mxCell id="aXcIpb9wPaynXJKiq8YG-30" value="" style="endArrow=classic;html=1;edgeStyle=orthogonalEdgeStyle;entryX=0.5;entryY=1;entryDx=0;entryDy=0;exitX=0.5;exitY=0;exitDx=0;exitDy=0;" parent="Vn1AuMzDJVdrEZINoW1q-16" source="iHcdqhV0YViVewFqACI8-173" target="aXcIpb9wPaynXJKiq8YG-29" edge="1">
          <mxGeometry width="50" height="50" relative="1" as="geometry">
            <mxPoint x="1418" y="931.64" as="sourcePoint" />
            <mxPoint x="1468" y="881.64" as="targetPoint" />
            <Array as="points">
              <mxPoint x="1095" y="569.14" />
              <mxPoint x="1243" y="569.14" />
            </Array>
          </mxGeometry>
        </mxCell>
        <mxCell id="aXcIpb9wPaynXJKiq8YG-31" value="&lt;font style=&quot;font-size: 12px&quot;&gt;Location&lt;br&gt;&lt;/font&gt;" style="edgeLabel;html=1;align=center;verticalAlign=middle;resizable=0;points=[];" parent="aXcIpb9wPaynXJKiq8YG-30" vertex="1" connectable="0">
          <mxGeometry x="0.176" y="4" relative="1" as="geometry">
            <mxPoint x="-28" y="1" as="offset" />
          </mxGeometry>
        </mxCell>
        <mxCell id="i0vj7bkVoeIxhTv1__Wb-87" value="Taxonomise with agreed list or taxise or similar" style="shape=hexagon;perimeter=hexagonPerimeter2;whiteSpace=wrap;html=1;fixedSize=1;rounded=0;labelBackgroundColor=none;strokeColor=#000000;fillColor=#ffffff;gradientColor=#ffffff;fontSize=12;direction=south;" parent="Vn1AuMzDJVdrEZINoW1q-16" vertex="1">
          <mxGeometry x="388.25" y="208.53999999999985" width="220" height="81.21" as="geometry" />
        </mxCell>
        <mxCell id="i0vj7bkVoeIxhTv1__Wb-105" style="edgeStyle=orthogonalEdgeStyle;rounded=1;orthogonalLoop=1;jettySize=auto;html=1;entryX=-0.005;entryY=0.495;entryDx=0;entryDy=0;fontSize=12;entryPerimeter=0;" parent="Vn1AuMzDJVdrEZINoW1q-16" source="iHcdqhV0YViVewFqACI8-139" target="i0vj7bkVoeIxhTv1__Wb-87" edge="1">
          <mxGeometry relative="1" as="geometry">
            <Array as="points">
              <mxPoint x="1243" y="29.139999999999986" />
              <mxPoint x="499" y="29.139999999999986" />
            </Array>
          </mxGeometry>
        </mxCell>
        <mxCell id="i0vj7bkVoeIxhTv1__Wb-104" style="edgeStyle=orthogonalEdgeStyle;rounded=1;orthogonalLoop=1;jettySize=auto;html=1;entryX=0;entryY=0.5;entryDx=0;entryDy=0;fontSize=12;exitX=0;exitY=0.5;exitDx=0;exitDy=0;" parent="Vn1AuMzDJVdrEZINoW1q-16" source="iHcdqhV0YViVewFqACI8-140" target="i0vj7bkVoeIxhTv1__Wb-87" edge="1">
          <mxGeometry relative="1" as="geometry">
            <mxPoint x="882" y="329.2099999999999" as="sourcePoint" />
            <Array as="points">
              <mxPoint x="933" y="29.139999999999986" />
              <mxPoint x="498" y="29.139999999999986" />
            </Array>
          </mxGeometry>
        </mxCell>
        <mxCell id="i0vj7bkVoeIxhTv1__Wb-88" value="Are there unknown taxa? Can they be resolved to species?" style="rhombus;whiteSpace=wrap;html=1;rounded=0;labelBackgroundColor=none;strokeColor=#000000;fillColor=#ffffff;gradientColor=#ffffff;fontSize=12;" parent="Vn1AuMzDJVdrEZINoW1q-16" vertex="1">
          <mxGeometry x="150" y="309.14" width="155" height="140" as="geometry" />
        </mxCell>
        <mxCell id="0EG8Ja6DzPZJZKJsx15a-1" style="edgeStyle=orthogonalEdgeStyle;rounded=0;orthogonalLoop=1;jettySize=auto;html=1;entryX=0.5;entryY=1;entryDx=0;entryDy=0;" parent="Vn1AuMzDJVdrEZINoW1q-16" source="i0vj7bkVoeIxhTv1__Wb-92" target="i0vj7bkVoeIxhTv1__Wb-87" edge="1">
          <mxGeometry relative="1" as="geometry">
            <Array as="points">
              <mxPoint x="60" y="249.14" />
            </Array>
          </mxGeometry>
        </mxCell>
        <mxCell id="i0vj7bkVoeIxhTv1__Wb-92" value="Update taxonomy" style="shape=hexagon;perimeter=hexagonPerimeter2;whiteSpace=wrap;html=1;fixedSize=1;rounded=0;labelBackgroundColor=none;strokeColor=#000000;fillColor=#ffffff;gradientColor=#ffffff;fontSize=12;direction=south;" parent="Vn1AuMzDJVdrEZINoW1q-16" vertex="1">
          <mxGeometry x="20" y="339.14" width="80" height="80" as="geometry" />
        </mxCell>
        <mxCell id="i0vj7bkVoeIxhTv1__Wb-94" style="edgeStyle=orthogonalEdgeStyle;rounded=1;orthogonalLoop=1;jettySize=auto;html=1;entryX=0.5;entryY=0;entryDx=0;entryDy=0;fontSize=12;" parent="Vn1AuMzDJVdrEZINoW1q-16" source="i0vj7bkVoeIxhTv1__Wb-88" target="i0vj7bkVoeIxhTv1__Wb-92" edge="1">
          <mxGeometry relative="1" as="geometry" />
        </mxCell>
        <mxCell id="i0vj7bkVoeIxhTv1__Wb-95" value="Yes" style="edgeLabel;html=1;align=center;verticalAlign=middle;resizable=0;points=[];fontSize=12;" parent="i0vj7bkVoeIxhTv1__Wb-94" vertex="1" connectable="0">
          <mxGeometry x="0.1448" y="2" relative="1" as="geometry">
            <mxPoint as="offset" />
          </mxGeometry>
        </mxCell>
        <mxCell id="w-YvjRMWvmcFSU0H_ef8-53" style="edgeStyle=orthogonalEdgeStyle;rounded=1;orthogonalLoop=1;jettySize=auto;html=1;startArrow=none;startFill=0;endArrow=classic;endFill=1;fontSize=24;entryX=0;entryY=0;entryDx=0;entryDy=0;" parent="Vn1AuMzDJVdrEZINoW1q-16" source="i0vj7bkVoeIxhTv1__Wb-106" target="w-YvjRMWvmcFSU0H_ef8-54" edge="1">
          <mxGeometry relative="1" as="geometry">
            <mxPoint x="390" y="319.14" as="targetPoint" />
            <Array as="points">
              <mxPoint x="227" y="549.14" />
              <mxPoint x="331" y="549.14" />
              <mxPoint x="331" y="299.14" />
            </Array>
          </mxGeometry>
        </mxCell>
        <mxCell id="i0vj7bkVoeIxhTv1__Wb-106" value="&lt;div&gt;Quantify accuracy and &quot;trustworthiness&quot; of data with coordinates.&lt;/div&gt;" style="shape=hexagon;perimeter=hexagonPerimeter2;whiteSpace=wrap;html=1;fixedSize=1;rounded=0;labelBackgroundColor=none;strokeColor=#000000;fillColor=#ffffff;gradientColor=#ffffff;fontSize=12;direction=south;" parent="Vn1AuMzDJVdrEZINoW1q-16" vertex="1">
          <mxGeometry x="147.5" y="499.14" width="160" height="110" as="geometry" />
        </mxCell>
        <mxCell id="i0vj7bkVoeIxhTv1__Wb-109" style="edgeStyle=orthogonalEdgeStyle;rounded=1;orthogonalLoop=1;jettySize=auto;html=1;fontSize=12;exitX=0.5;exitY=1;exitDx=0;exitDy=0;" parent="Vn1AuMzDJVdrEZINoW1q-16" source="i0vj7bkVoeIxhTv1__Wb-88" target="i0vj7bkVoeIxhTv1__Wb-106" edge="1">
          <mxGeometry relative="1" as="geometry" />
        </mxCell>
        <mxCell id="iHcdqhV0YViVewFqACI8-179" value="Label missingness" style="ellipse;whiteSpace=wrap;html=1;fontSize=12;" parent="Vn1AuMzDJVdrEZINoW1q-16" vertex="1">
          <mxGeometry x="750.0019512195122" y="819.1427638190954" width="167.17073170731703" height="50.85427135678392" as="geometry" />
        </mxCell>
        <mxCell id="w-YvjRMWvmcFSU0H_ef8-60" style="edgeStyle=orthogonalEdgeStyle;rounded=1;orthogonalLoop=1;jettySize=auto;html=1;startArrow=none;startFill=0;endArrow=classic;endFill=1;fontSize=24;" parent="Vn1AuMzDJVdrEZINoW1q-16" source="w-YvjRMWvmcFSU0H_ef8-54" target="iHcdqhV0YViVewFqACI8-45" edge="1">
          <mxGeometry relative="1" as="geometry">
            <Array as="points">
              <mxPoint x="193" y="629.14" />
            </Array>
          </mxGeometry>
        </mxCell>
        <mxCell id="0EG8Ja6DzPZJZKJsx15a-3" style="edgeStyle=orthogonalEdgeStyle;rounded=0;orthogonalLoop=1;jettySize=auto;html=1;entryX=0.007;entryY=0.5;entryDx=0;entryDy=0;entryPerimeter=0;" parent="WIyWlLk6GJQsqaUBKTNV-1" source="aXcIpb9wPaynXJKiq8YG-51" target="i0vj7bkVoeIxhTv1__Wb-87" edge="1">
          <mxGeometry relative="1" as="geometry" />
        </mxCell>
      </root>
    </mxGraphModel>
  </diagram>
</mxfile>
